OpenSansCondensed-CondensedLight.ufo
<glyph name="period" format="2">
  <advance width="422"/>
  <unicode hex="002E"/>
  <outline>
    <contour>
      <point x="211" y="-16" type="curve" smooth="yes"/>
      <point x="254" y="-16"/>
      <point x="289" y="14"/>
      <point x="289" y="90" type="curve" smooth="yes"/>
      <point x="289" y="169"/>
      <point x="254" y="197"/>
      <point x="211" y="197" type="curve" smooth="yes"/>
      <point x="159" y="197"/>
      <point x="133" y="161"/>
      <point x="133" y="90" type="curve" smooth="yes"/>
      <point x="133" y="19"/>
      <point x="159" y="-16"/>
    </contour>
  </outline>
</glyph>
<glyph name="colon" format="2">
  <advance width="422"/>
  <unicode hex="003A"/>
  <note>
colon
</note>
  <outline>
    <contour>
      <point x="211" y="874" type="curve" smooth="yes"/>
      <point x="254" y="874"/>
      <point x="289" y="905"/>
      <point x="289" y="981" type="curve" smooth="yes"/>
      <point x="289" y="1052"/>
      <point x="263" y="1087"/>
      <point x="211" y="1087" type="curve" smooth="yes"/>
      <point x="159" y="1087"/>
      <point x="133" y="1052"/>
      <point x="133" y="981" type="curve" smooth="yes"/>
      <point x="133" y="910"/>
      <point x="159" y="874"/>
    </contour>
    <contour>
      <point x="211" y="-16" type="curve" smooth="yes"/>
      <point x="254" y="-16"/>
      <point x="289" y="14"/>
      <point x="289" y="90" type="curve" smooth="yes"/>
      <point x="289" y="169"/>
      <point x="254" y="197"/>
      <point x="211" y="197" type="curve" smooth="yes"/>
      <point x="159" y="197"/>
      <point x="133" y="161"/>
      <point x="133" y="90" type="curve" smooth="yes"/>
      <point x="133" y="19"/>
      <point x="159" y="-16"/>
    </contour>
  </outline>
</glyph>
<glyph name="at" format="2">
  <advance width="1233"/>
  <unicode hex="0040"/>
  <note>
at
</note>
  <outline>
    <contour>
      <point x="584" y="-180" type="curve" smooth="yes"/>
      <point x="681" y="-180"/>
      <point x="748" y="-160"/>
      <point x="815" y="-119" type="curve"/>
      <point x="815" y="-25" type="line"/>
      <point x="766" y="-64"/>
      <point x="682" y="-94"/>
      <point x="590" y="-94" type="curve" smooth="yes"/>
      <point x="347" y="-94"/>
      <point x="203" y="161"/>
      <point x="203" y="596" type="curve" smooth="yes"/>
      <point x="203" y="979"/>
      <point x="338" y="1384"/>
      <point x="653" y="1384" type="curve" smooth="yes"/>
      <point x="914" y="1384"/>
      <point x="1032" y="1061"/>
      <point x="1032" y="741" type="curve" smooth="yes"/>
      <point x="1032" y="549"/>
      <point x="1020" y="326"/>
      <point x="905" y="326" type="curve" smooth="yes"/>
      <point x="873" y="326"/>
      <point x="847" y="338"/>
      <point x="830" y="364" type="curve" smooth="yes"/>
      <point x="812" y="391"/>
      <point x="803" y="433"/>
      <point x="803" y="494" type="curve" smooth="yes"/>
      <point x="803" y="514"/>
      <point x="803" y="535"/>
      <point x="803" y="555" type="curve"/>
      <point x="823" y="1032" type="line"/>
      <point x="772" y="1051"/>
      <point x="718" y="1061"/>
      <point x="659" y="1061" type="curve" smooth="yes"/>
      <point x="484" y="1061"/>
      <point x="397" y="903"/>
      <point x="397" y="588" type="curve" smooth="yes"/>
      <point x="397" y="361"/>
      <point x="465" y="231"/>
      <point x="582" y="231" type="curve" smooth="yes"/>
      <point x="670" y="231"/>
      <point x="716" y="294"/>
      <point x="739" y="438" type="curve"/>
      <point x="748" y="438" type="line"/>
      <point x="751" y="306"/>
      <point x="794" y="231"/>
      <point x="905" y="231" type="curve" smooth="yes"/>
      <point x="1055" y="231"/>
      <point x="1130" y="399"/>
      <point x="1130" y="735" type="curve" smooth="yes"/>
      <point x="1130" y="1108"/>
      <point x="977" y="1473"/>
      <point x="655" y="1473" type="curve" smooth="yes"/>
      <point x="270" y="1473"/>
      <point x="111" y="1042"/>
      <point x="111" y="580" type="curve" smooth="yes"/>
      <point x="111" y="166"/>
      <point x="230" y="-180"/>
    </contour>
    <contour>
      <point x="600" y="326" type="curve" smooth="yes"/>
      <point x="571" y="326"/>
      <point x="548" y="341"/>
      <point x="531" y="372" type="curve" smooth="yes"/>
      <point x="508" y="414"/>
      <point x="496" y="485"/>
      <point x="496" y="584" type="curve" smooth="yes"/>
      <point x="496" y="714"/>
      <point x="509" y="812"/>
      <point x="536" y="879" type="curve" smooth="yes"/>
      <point x="562" y="946"/>
      <point x="600" y="979"/>
      <point x="649" y="979" type="curve" smooth="yes"/>
      <point x="679" y="979"/>
      <point x="703" y="976"/>
      <point x="721" y="971" type="curve"/>
      <point x="705" y="666" type="line" smooth="yes"/>
      <point x="699" y="550"/>
      <point x="688" y="464"/>
      <point x="671" y="409" type="curve" smooth="yes"/>
      <point x="654" y="354"/>
      <point x="630" y="326"/>
    </contour>
  </outline>
</glyph>
<glyph name="S" format="2">
  <advance width="809"/>
  <unicode hex="0053"/>
  <anchor x="349" y="0" name="bottom"/>
  <anchor x="405" y="1462" name="top"/>
  <outline>
    <contour>
      <point x="346" y="-20" type="curve" smooth="yes"/>
      <point x="597" y="-20"/>
      <point x="721" y="158"/>
      <point x="721" y="383" type="curve" smooth="yes"/>
      <point x="721" y="603"/>
      <point x="603" y="696"/>
      <point x="436" y="787" type="curve" smooth="yes"/>
      <point x="339" y="840"/>
      <point x="268" y="879"/>
      <point x="229" y="948" type="curve" smooth="yes"/>
      <point x="207" y="987"/>
      <point x="195" y="1035"/>
      <point x="195" y="1100" type="curve" smooth="yes"/>
      <point x="195" y="1289"/>
      <point x="294" y="1386"/>
      <point x="445" y="1386" type="curve" smooth="yes"/>
      <point x="512" y="1386"/>
      <point x="590" y="1367"/>
      <point x="664" y="1329" type="curve"/>
      <point x="702" y="1423" type="line"/>
      <point x="652" y="1451"/>
      <point x="548" y="1483"/>
      <point x="444" y="1483" type="curve" smooth="yes"/>
      <point x="235" y="1483"/>
      <point x="98" y="1331"/>
      <point x="98" y="1107" type="curve" smooth="yes"/>
      <point x="98" y="1048"/>
      <point x="107" y="993"/>
      <point x="125" y="944" type="curve" smooth="yes"/>
      <point x="170" y="823"/>
      <point x="256" y="773"/>
      <point x="377" y="709" type="curve" smooth="yes"/>
      <point x="521" y="633"/>
      <point x="623" y="575"/>
      <point x="623" y="385" type="curve" smooth="yes"/>
      <point x="623" y="200"/>
      <point x="527" y="74"/>
      <point x="353" y="74" type="curve" smooth="yes"/>
      <point x="279" y="74"/>
      <point x="155" y="97"/>
      <point x="86" y="137" type="curve"/>
      <point x="86" y="31" type="line"/>
      <point x="160" y="-6"/>
      <point x="276" y="-20"/>
    </contour>
  </outline>
</glyph>
<glyph name="U" format="2">
  <advance width="1012"/>
  <unicode hex="0055"/>
  <anchor x="506" y="0" name="bottom"/>
  <anchor x="703" y="10" name="ogonek"/>
  <anchor x="506" y="1462" name="top"/>
  <anchor x="992" y="1462" name="topright"/>
  <outline>
    <contour>
      <point x="510" y="-20" type="curve" smooth="yes"/>
      <point x="746" y="-20"/>
      <point x="864" y="145"/>
      <point x="864" y="475" type="curve" smooth="yes"/>
      <point x="864" y="1462" type="line"/>
      <point x="766" y="1462" type="line"/>
      <point x="766" y="467" type="line" smooth="yes"/>
      <point x="766" y="208"/>
      <point x="678" y="74"/>
      <point x="510" y="74" type="curve" smooth="yes"/>
      <point x="341" y="74"/>
      <point x="246" y="210"/>
      <point x="246" y="463" type="curve" smooth="yes"/>
      <point x="246" y="1462" type="line"/>
      <point x="147" y="1462" type="line"/>
      <point x="147" y="475" type="line" smooth="yes"/>
      <point x="147" y="156"/>
      <point x="274" y="-20"/>
    </contour>
  </outline>
</glyph>
<glyph name="Y" format="2">
  <advance width="686"/>
  <unicode hex="0059"/>
  <anchor x="343" y="0" name="bottom"/>
  <anchor x="343" y="1462" name="top"/>
  <anchor x="20" y="1462" name="topleft"/>
  <outline>
    <contour>
      <point x="104" y="1462" type="line"/>
      <point x="0" y="1462" type="line"/>
      <point x="293" y="571" type="line"/>
      <point x="293" y="0" type="line"/>
      <point x="391" y="0" type="line"/>
      <point x="391" y="571" type="line"/>
      <point x="686" y="1462" type="line"/>
      <point x="582" y="1462" type="line"/>
      <point x="344" y="707" type="line"/>
    </contour>
  </outline>
</glyph>
<glyph name="e" format="2">
  <advance width="803"/>
  <unicode hex="0065"/>
  <anchor x="402" y="0" name="bottom"/>
  <anchor x="733" y="44" name="ogonek"/>
  <anchor x="402" y="1085" name="top"/>
  <outline>
    <contour>
      <point x="453" y="-20" type="curve" smooth="yes"/>
      <point x="530" y="-20"/>
      <point x="603" y="2"/>
      <point x="672" y="45" type="curve"/>
      <point x="672" y="137" type="line"/>
      <point x="597" y="92"/>
      <point x="525" y="70"/>
      <point x="457" y="70" type="curve" smooth="yes"/>
      <point x="281" y="70"/>
      <point x="196" y="227"/>
      <point x="193" y="543" type="curve"/>
      <point x="707" y="543" type="line"/>
      <point x="707" y="631" type="line" smooth="yes"/>
      <point x="707" y="922"/>
      <point x="596" y="1106"/>
      <point x="416" y="1106" type="curve" smooth="yes"/>
      <point x="209" y="1106"/>
      <point x="96" y="906"/>
      <point x="96" y="535" type="curve" smooth="yes"/>
      <point x="96" y="186"/>
      <point x="224" y="-20"/>
    </contour>
    <contour>
      <point x="195" y="629" type="line"/>
      <point x="208" y="890"/>
      <point x="279" y="1020"/>
      <point x="410" y="1020" type="curve" smooth="yes"/>
      <point x="534" y="1020"/>
      <point x="612" y="868"/>
      <point x="612" y="629" type="curve"/>
    </contour>
  </outline>
</glyph>
<glyph name="l" format="2">
  <advance width="385"/>
  <unicode hex="006C"/>
  <anchor x="153" y="0" name="bottom"/>
  <anchor x="193" y="543" name="center"/>
  <anchor x="193" y="1556" name="top"/>
  <anchor x="485" y="1556" name="topright"/>
  <outline>
    <contour>
      <point x="240" y="1556" type="line"/>
      <point x="145" y="1556" type="line"/>
      <point x="145" y="0" type="line"/>
      <point x="240" y="0" type="line"/>
    </contour>
  </outline>
</glyph>
<glyph name="r" format="2">
  <advance width="559"/>
  <unicode hex="0072"/>
  <anchor x="162" y="0" name="bottom"/>
  <anchor x="280" y="1085" name="top"/>
  <outline>
    <contour>
      <point x="145" y="0" type="line"/>
      <point x="240" y="0" type="line"/>
      <point x="240" y="575" type="line" smooth="yes"/>
      <point x="240" y="656"/>
      <point x="249" y="731"/>
      <point x="267" y="798" type="curve" smooth="yes"/>
      <point x="303" y="933"/>
      <point x="371" y="1012"/>
      <point x="444" y="1012" type="curve" smooth="yes"/>
      <point x="469" y="1012"/>
      <point x="494" y="1007"/>
      <point x="518" y="997" type="curve"/>
      <point x="541" y="1092" type="line"/>
      <point x="512" y="1101"/>
      <point x="480" y="1106"/>
      <point x="446" y="1106" type="curve" smooth="yes"/>
      <point x="359" y="1106"/>
      <point x="291" y="1036"/>
      <point x="240" y="895" type="curve"/>
      <point x="233" y="895" type="line"/>
      <point x="223" y="1085" type="line"/>
      <point x="145" y="1085" type="line"/>
    </contour>
  </outline>
</glyph>
<glyph name="v" format="2">
  <advance width="653"/>
  <unicode hex="0076"/>
  <anchor x="327" y="0" name="bottom"/>
  <anchor x="327" y="1085" name="top"/>
  <outline>
    <contour>
      <point x="266" y="0" type="line"/>
      <point x="379" y="0" type="line"/>
      <point x="643" y="1085" type="line"/>
      <point x="547" y="1085" type="line"/>
      <point x="350" y="239" type="line" smooth="yes"/>
      <point x="340" y="196"/>
      <point x="334" y="158"/>
      <point x="330" y="123" type="curve"/>
      <point x="322" y="123" type="line"/>
      <point x="305" y="218"/>
      <point x="287" y="306"/>
      <point x="268" y="387" type="curve" smooth="yes"/>
      <point x="106" y="1085" type="line"/>
      <point x="10" y="1085" type="line"/>
    </contour>
  </outline>
</glyph>
<glyph name="w" format="2">
  <advance width="1123"/>
  <unicode hex="0077"/>
  <anchor x="561" y="0" name="bottom"/>
  <anchor x="561" y="1086" name="top"/>
  <outline>
    <contour>
      <point x="255" y="0" type="line"/>
      <point x="370" y="0" type="line"/>
      <point x="523" y="735" type="line" smooth="yes"/>
      <point x="539" y="811"/>
      <point x="546" y="848"/>
      <point x="561" y="944" type="curve"/>
      <point x="563" y="944" type="line"/>
      <point x="576" y="863"/>
      <point x="596" y="745"/>
      <point x="598" y="735" type="curve" smooth="yes"/>
      <point x="748" y="0" type="line"/>
      <point x="860" y="0" type="line"/>
      <point x="1104" y="1086" type="line"/>
      <point x="1010" y="1086" type="line"/>
      <point x="841" y="289" type="line" smooth="yes"/>
      <point x="823" y="203"/>
      <point x="817" y="173"/>
      <point x="811" y="123" type="curve"/>
      <point x="806" y="123" type="line"/>
      <point x="782" y="278"/>
      <point x="758" y="413"/>
      <point x="749" y="454" type="curve" smooth="yes"/>
      <point x="613" y="1086" type="line"/>
      <point x="512" y="1086" type="line"/>
      <point x="377" y="456" type="line" smooth="yes"/>
      <point x="350" y="329"/>
      <point x="331" y="219"/>
      <point x="318" y="123" type="curve"/>
      <point x="312" y="123" type="line"/>
      <point x="292" y="241"/>
      <point x="253" y="442"/>
      <point x="250" y="454" type="curve" smooth="yes"/>
      <point x="114" y="1086" type="line"/>
      <point x="20" y="1086" type="line"/>
    </contour>
  </outline>
</glyph>
<glyph name="sterling" format="2">
  <advance width="819"/>
  <unicode hex="00A3"/>
  <note>
sterling
</note>
  <outline>
    <contour>
      <point x="92" y="0" type="line"/>
      <point x="737" y="0" type="line"/>
      <point x="737" y="94" type="line"/>
      <point x="215" y="94" type="line"/>
      <point x="296" y="152"/>
      <point x="336" y="252"/>
      <point x="336" y="395" type="curve" smooth="yes"/>
      <point x="336" y="682" type="line"/>
      <point x="586" y="682" type="line"/>
      <point x="586" y="768" type="line"/>
      <point x="336" y="768" type="line"/>
      <point x="336" y="1120" type="line" smooth="yes"/>
      <point x="336" y="1309"/>
      <point x="384" y="1393"/>
      <point x="504" y="1393" type="curve" smooth="yes"/>
      <point x="569" y="1393"/>
      <point x="615" y="1376"/>
      <point x="686" y="1319" type="curve"/>
      <point x="741" y="1395" type="line"/>
      <point x="674" y="1454"/>
      <point x="595" y="1483"/>
      <point x="506" y="1483" type="curve" smooth="yes"/>
      <point x="321" y="1483"/>
      <point x="238" y="1366"/>
      <point x="238" y="1122" type="curve" smooth="yes"/>
      <point x="238" y="768" type="line"/>
      <point x="80" y="768" type="line"/>
      <point x="80" y="682" type="line"/>
      <point x="238" y="682" type="line"/>
      <point x="238" y="393" type="line" smooth="yes"/>
      <point x="238" y="338"/>
      <point x="231" y="288"/>
      <point x="219" y="245" type="curve" smooth="yes"/>
      <point x="195" y="164"/>
      <point x="151" y="107"/>
      <point x="92" y="82" type="curve"/>
    </contour>
  </outline>
</glyph>
<glyph name="logicalnot" format="2">
  <advance width="819"/>
  <unicode hex="00AC"/>
  <note>
logicalnot
</note>
  <outline>
    <contour>
      <point x="657" y="250" type="line"/>
      <point x="739" y="250" type="line"/>
      <point x="739" y="764" type="line"/>
      <point x="59" y="764" type="line"/>
      <point x="59" y="682" type="line"/>
      <point x="657" y="682" type="line"/>
    </contour>
  </outline>
</glyph>
<glyph name="Eth" format="2">
  <advance width="995"/>
  <unicode hex="00D0"/>
  <note>
Eth
</note>
  <outline>
    <contour>
      <point x="160" y="0" type="line"/>
      <point x="420" y="0" type="line" smooth="yes"/>
      <point x="730" y="0"/>
      <point x="885" y="248"/>
      <point x="885" y="745" type="curve" smooth="yes"/>
      <point x="885" y="1214"/>
      <point x="727" y="1462"/>
      <point x="426" y="1462" type="curve" smooth="yes"/>
      <point x="160" y="1462" type="line"/>
      <point x="160" y="791" type="line"/>
      <point x="61" y="791" type="line"/>
      <point x="61" y="700" type="line"/>
      <point x="160" y="700" type="line"/>
    </contour>
    <contour>
      <point x="258" y="90" type="line"/>
      <point x="258" y="700" type="line"/>
      <point x="483" y="700" type="line"/>
      <point x="483" y="791" type="line"/>
      <point x="258" y="791" type="line"/>
      <point x="258" y="1372" type="line"/>
      <point x="422" y="1372" type="line" smooth="yes"/>
      <point x="659" y="1372"/>
      <point x="782" y="1151"/>
      <point x="782" y="739" type="curve" smooth="yes"/>
      <point x="782" y="316"/>
      <point x="667" y="90"/>
      <point x="414" y="90" type="curve" smooth="yes"/>
    </contour>
  </outline>
</glyph>
<glyph name="divide" format="2">
  <advance width="819"/>
  <unicode hex="00F7"/>
  <note>
divide
</note>
  <outline>
    <contour>
      <point x="59" y="682" type="line"/>
      <point x="760" y="682" type="line"/>
      <point x="760" y="764" type="line"/>
      <point x="59" y="764" type="line"/>
    </contour>
    <contour>
      <point x="410" y="266" type="curve" smooth="yes"/>
      <point x="453" y="266"/>
      <point x="487" y="297"/>
      <point x="487" y="373" type="curve" smooth="yes"/>
      <point x="487" y="444"/>
      <point x="461" y="479"/>
      <point x="410" y="479" type="curve" smooth="yes"/>
      <point x="358" y="479"/>
      <point x="332" y="444"/>
      <point x="332" y="373" type="curve" smooth="yes"/>
      <point x="332" y="302"/>
      <point x="358" y="266"/>
    </contour>
    <contour>
      <point x="410" y="965" type="curve" smooth="yes"/>
      <point x="453" y="965"/>
      <point x="487" y="995"/>
      <point x="487" y="1071" type="curve" smooth="yes"/>
      <point x="487" y="1142"/>
      <point x="461" y="1178"/>
      <point x="410" y="1178" type="curve" smooth="yes"/>
      <point x="358" y="1178"/>
      <point x="332" y="1142"/>
      <point x="332" y="1071" type="curve" smooth="yes"/>
      <point x="332" y="1000"/>
      <point x="358" y="965"/>
    </contour>
  </outline>
</glyph>
<glyph name="Eng" format="2">
  <advance width="1090"/>
  <unicode hex="014A"/>
  <note>
Eng
</note>
  <outline>
    <contour>
      <point x="709" y="-369" type="curve" smooth="yes"/>
      <point x="854" y="-369"/>
      <point x="930" y="-252"/>
      <point x="930" y="-23" type="curve" smooth="yes"/>
      <point x="930" y="1462" type="line"/>
      <point x="834" y="1462" type="line"/>
      <point x="834" y="492" type="line" smooth="yes"/>
      <point x="834" y="415"/>
      <point x="837" y="326"/>
      <point x="842" y="225" type="curve"/>
      <point x="836" y="225" type="line"/>
      <point x="287" y="1462" type="line"/>
      <point x="160" y="1462" type="line"/>
      <point x="160" y="0" type="line"/>
      <point x="256" y="0" type="line"/>
      <point x="256" y="1049" type="line" smooth="yes"/>
      <point x="256" y="1133"/>
      <point x="252" y="1220"/>
      <point x="244" y="1311" type="curve"/>
      <point x="252" y="1311" type="line"/>
      <point x="852" y="-40" type="line"/>
      <point x="833" y="52" type="line"/>
      <point x="839" y="-173"/>
      <point x="810" y="-272"/>
      <point x="707" y="-272" type="curve" smooth="yes"/>
      <point x="663" y="-272"/>
      <point x="625" y="-265"/>
      <point x="592" y="-252" type="curve"/>
      <point x="592" y="-344" type="line"/>
      <point x="625" y="-361"/>
      <point x="664" y="-369"/>
    </contour>
  </outline>
</glyph>
<glyph name="OE" format="2">
  <advance width="1233"/>
  <unicode hex="0152"/>
  <note>
OE
</note>
  <anchor x="617" y="0" name="bottom"/>
  <anchor x="617" y="1462" name="top"/>
  <outline>
    <contour>
      <point x="586" y="-6" type="curve"/>
      <point x="628" y="-4"/>
      <point x="669" y="-2"/>
      <point x="711" y="0" type="curve"/>
      <point x="1135" y="0" type="line"/>
      <point x="1135" y="94" type="line"/>
      <point x="702" y="94" type="line"/>
      <point x="702" y="719" type="line"/>
      <point x="1110" y="719" type="line"/>
      <point x="1110" y="813" type="line"/>
      <point x="702" y="813" type="line"/>
      <point x="702" y="1368" type="line"/>
      <point x="1135" y="1368" type="line"/>
      <point x="1135" y="1462" type="line"/>
      <point x="709" y="1462" type="line"/>
      <point x="671" y="1464"/>
      <point x="632" y="1466"/>
      <point x="594" y="1468" type="curve"/>
      <point x="279" y="1468"/>
      <point x="111" y="1220"/>
      <point x="111" y="735" type="curve" smooth="yes"/>
      <point x="111" y="241"/>
      <point x="269" y="-6"/>
    </contour>
    <contour>
      <point x="599" y="88" type="curve" smooth="yes"/>
      <point x="331" y="90"/>
      <point x="215" y="283"/>
      <point x="215" y="733" type="curve" smooth="yes"/>
      <point x="215" y="1185"/>
      <point x="334" y="1372"/>
      <point x="599" y="1374" type="curve" smooth="yes"/>
      <point x="601" y="1374"/>
      <point x="602" y="1374"/>
      <point x="604" y="1374" type="curve"/>
      <point x="604" y="88" type="line"/>
      <point x="602" y="88"/>
      <point x="601" y="88"/>
    </contour>
  </outline>
</glyph>
<glyph name="apostrophemod" format="2">
  <advance width="315"/>
  <unicode hex="02BC"/>
  <note>
afii57929
</note>
  <outline>
    <contour>
      <point x="43" y="993" type="curve"/>
      <point x="106" y="993" type="line"/>
      <point x="174" y="1146"/>
      <point x="229" y="1295"/>
      <point x="272" y="1440" type="curve"/>
      <point x="258" y="1462" type="line"/>
      <point x="143" y="1462" type="line"/>
      <point x="126" y="1319"/>
      <point x="93" y="1163"/>
    </contour>
  </outline>
</glyph>
<glyph name="lowringmod" format="2">
  <advance width="682"/>
  <unicode hex="02F3"/>
  <note>
uni02F3
</note>
  <anchor x="340" y="1" name="_bottom"/>
  <outline>
    <contour>
      <point x="340" y="-506" type="curve" smooth="yes"/>
      <point x="461" y="-506"/>
      <point x="539" y="-434"/>
      <point x="539" y="-315" type="curve" smooth="yes"/>
      <point x="539" y="-204"/>
      <point x="456" y="-133"/>
      <point x="340" y="-133" type="curve" smooth="yes"/>
      <point x="217" y="-133"/>
      <point x="141" y="-206"/>
      <point x="141" y="-319" type="curve" smooth="yes"/>
      <point x="141" y="-434"/>
      <point x="216" y="-506"/>
    </contour>
    <contour>
      <point x="340" y="-436" type="curve" smooth="yes"/>
      <point x="260" y="-436"/>
      <point x="219" y="-390"/>
      <point x="219" y="-319" type="curve" smooth="yes"/>
      <point x="219" y="-251"/>
      <point x="268" y="-203"/>
      <point x="340" y="-203" type="curve" smooth="yes"/>
      <point x="419" y="-203"/>
      <point x="461" y="-251"/>
      <point x="461" y="-319" type="curve" smooth="yes"/>
      <point x="461" y="-390"/>
      <point x="412" y="-436"/>
    </contour>
  </outline>
</glyph>
<glyph name="acutecomb" format="2">
  <unicode hex="0301"/>
  <note>
acutecomb
</note>
  <anchor x="-90" y="1123" name="_top"/>
  <anchor x="0" y="1569" name="top"/>
  <outline>
    <contour>
      <point x="-158" y="1241" type="line"/>
      <point x="-111" y="1241" type="line"/>
      <point x="-16" y="1320"/>
      <point x="106" y="1459"/>
      <point x="158" y="1552" type="curve"/>
      <point x="158" y="1569" type="line"/>
      <point x="33" y="1569" type="line"/>
      <point x="-10" y="1475"/>
      <point x="-73" y="1373"/>
      <point x="-158" y="1262" type="curve"/>
    </contour>
  </outline>
</glyph>
<glyph name="brevecomb" format="2">
  <unicode hex="0306"/>
  <note>
breve
</note>
  <anchor x="579" y="1085" name="_top"/>
  <anchor x="579" y="1479" name="top"/>
  <outline>
    <contour>
      <point x="572" y="1245" type="curve" smooth="yes"/>
      <point x="711" y="1245"/>
      <point x="792" y="1334"/>
      <point x="796" y="1479" type="curve"/>
      <point x="724" y="1479" type="line"/>
      <point x="711" y="1379"/>
      <point x="661" y="1329"/>
      <point x="576" y="1329" type="curve" smooth="yes"/>
      <point x="492" y="1329"/>
      <point x="438" y="1380"/>
      <point x="429" y="1479" type="curve"/>
      <point x="361" y="1479" type="line"/>
      <point x="370" y="1323"/>
      <point x="440" y="1245"/>
    </contour>
  </outline>
</glyph>
<glyph name="hookabovecomb" format="2">
  <unicode hex="0309"/>
  <note>
hookabovecomb
</note>
  <anchor x="-1" y="1085" name="_top"/>
  <anchor x="-1" y="1675" name="top"/>
  <outline>
    <contour>
      <point x="-83" y="1208" type="line"/>
      <point x="-13" y="1208" type="line"/>
      <point x="-3" y="1329" type="line"/>
      <point x="102" y="1354"/>
      <point x="154" y="1412"/>
      <point x="154" y="1505" type="curve" smooth="yes"/>
      <point x="154" y="1616"/>
      <point x="82" y="1675"/>
      <point x="-54" y="1675" type="curve" smooth="yes"/>
      <point x="-89" y="1675"/>
      <point x="-122" y="1671"/>
      <point x="-154" y="1663" type="curve"/>
      <point x="-154" y="1593" type="line"/>
      <point x="-124" y="1599"/>
      <point x="-96" y="1602"/>
      <point x="-70" y="1602" type="curve" smooth="yes"/>
      <point x="22" y="1602"/>
      <point x="68" y="1568"/>
      <point x="68" y="1501" type="curve" smooth="yes"/>
      <point x="68" y="1432"/>
      <point x="-1" y="1386"/>
      <point x="-89" y="1386" type="curve"/>
    </contour>
  </outline>
</glyph>
<glyph name="hungarumlautcomb" format="2">
  <unicode hex="030B"/>
  <note>
hungarumlaut
</note>
  <anchor x="581" y="1085" name="_top"/>
  <anchor x="581" y="1569" name="top"/>
  <outline>
    <contour>
      <point x="569" y="1241" type="line"/>
      <point x="616" y="1241" type="line"/>
      <point x="697" y="1314"/>
      <point x="807" y="1455"/>
      <point x="858" y="1552" type="curve"/>
      <point x="858" y="1569" type="line"/>
      <point x="739" y="1569" type="line"/>
      <point x="700" y="1480"/>
      <point x="629" y="1341"/>
      <point x="569" y="1262" type="curve"/>
    </contour>
    <contour>
      <point x="303" y="1241" type="line"/>
      <point x="350" y="1241" type="line"/>
      <point x="435" y="1317"/>
      <point x="536" y="1452"/>
      <point x="592" y="1552" type="curve"/>
      <point x="592" y="1569" type="line"/>
      <point x="473" y="1569" type="line"/>
      <point x="434" y="1480"/>
      <point x="363" y="1341"/>
      <point x="303" y="1262" type="curve"/>
    </contour>
  </outline>
</glyph>
<glyph name="caroncomb" format="2">
  <unicode hex="030C"/>
  <note>
caron
</note>
  <anchor x="579" y="1085" name="_top"/>
  <anchor x="579" y="1569" name="top"/>
  <outline>
    <contour>
      <point x="529" y="1241" type="curve"/>
      <point x="624" y="1241" type="line"/>
      <point x="635" y="1266"/>
      <point x="652" y="1299"/>
      <point x="673" y="1335" type="curve" smooth="yes"/>
      <point x="712" y="1404"/>
      <point x="764" y="1485"/>
      <point x="814" y="1550" type="curve"/>
      <point x="814" y="1569" type="line"/>
      <point x="767" y="1569" type="line"/>
      <point x="725" y="1530"/>
      <point x="633" y="1421"/>
      <point x="579" y="1356" type="curve"/>
      <point x="459" y="1497"/>
      <point x="453" y="1504"/>
      <point x="386" y="1569" type="curve"/>
      <point x="343" y="1569" type="line"/>
      <point x="343" y="1550" type="line"/>
      <point x="396" y="1476"/>
      <point x="442" y="1404"/>
      <point x="481" y="1334" type="curve" smooth="yes"/>
      <point x="498" y="1303"/>
      <point x="514" y="1272"/>
    </contour>
  </outline>
</glyph>
<glyph name="dblgravecomb" format="2">
  <unicode hex="030F"/>
  <note>
uni030F
</note>
  <anchor x="-1" y="1085" name="_top"/>
  <anchor x="-1" y="1569" name="top"/>
  <outline>
    <contour>
      <point x="231" y="1241" type="curve"/>
      <point x="278" y="1241" type="line"/>
      <point x="278" y="1262" type="line"/>
      <point x="231" y="1321"/>
      <point x="159" y="1449"/>
      <point x="108" y="1569" type="curve"/>
      <point x="-12" y="1569" type="line"/>
      <point x="-12" y="1552" type="line"/>
      <point x="44" y="1451"/>
      <point x="158" y="1304"/>
    </contour>
    <contour>
      <point x="-37" y="1241" type="curve"/>
      <point x="11" y="1241" type="line"/>
      <point x="11" y="1262" type="line"/>
      <point x="-41" y="1330"/>
      <point x="-98" y="1432"/>
      <point x="-160" y="1569" type="curve"/>
      <point x="-278" y="1569" type="line"/>
      <point x="-278" y="1552" type="line"/>
      <point x="-226" y="1453"/>
      <point x="-113" y="1309"/>
    </contour>
  </outline>
</glyph>
<glyph name="commaaccentcomb" format="2">
  <unicode hex="0326"/>
  <anchor x="194" y="0" name="_bottom"/>
  <anchor x="194" y="-453" name="bottom"/>
  <outline>
    <contour>
      <point x="100" y="-453" type="line"/>
      <point x="141" y="-453" type="line"/>
      <point x="196" y="-378"/>
      <point x="259" y="-249"/>
      <point x="287" y="-145" type="curve"/>
      <point x="287" y="-125" type="line"/>
      <point x="176" y="-125" type="line"/>
      <point x="168" y="-214"/>
      <point x="129" y="-352"/>
      <point x="100" y="-432" type="curve"/>
    </contour>
  </outline>
</glyph>
<glyph name="tonos" format="2">
  <advance width="1182"/>
  <unicode hex="0384"/>
  <note>
tonos
</note>
  <anchor x="541" y="1085" name="_top"/>
  <anchor x="793" y="1556" name="_topleft"/>
  <outline>
    <contour>
      <point x="488" y="1241" type="line"/>
      <point x="543" y="1241" type="line"/>
      <point x="599" y="1349"/>
      <point x="663" y="1498"/>
      <point x="694" y="1589" type="curve"/>
      <point x="694" y="1610" type="line"/>
      <point x="584" y="1610" type="line"/>
      <point x="571" y="1537"/>
      <point x="520" y="1350"/>
      <point x="488" y="1262" type="curve"/>
    </contour>
  </outline>
</glyph>
<glyph name="Theta" format="2">
  <advance width="1065"/>
  <unicode hex="0398"/>
  <note>
Theta
</note>
  <outline>
    <contour>
      <point x="532" y="-20" type="curve" smooth="yes"/>
      <point x="805" y="-20"/>
      <point x="954" y="249"/>
      <point x="954" y="733" type="curve" smooth="yes"/>
      <point x="954" y="1214"/>
      <point x="807" y="1483"/>
      <point x="535" y="1483" type="curve" smooth="yes"/>
      <point x="252" y="1483"/>
      <point x="111" y="1239"/>
      <point x="111" y="735" type="curve" smooth="yes"/>
      <point x="111" y="252"/>
      <point x="256" y="-20"/>
    </contour>
    <contour>
      <point x="532" y="74" type="curve" smooth="yes"/>
      <point x="324" y="74"/>
      <point x="213" y="298"/>
      <point x="213" y="733" type="curve" smooth="yes"/>
      <point x="213" y="1161"/>
      <point x="320" y="1389"/>
      <point x="535" y="1389" type="curve" smooth="yes"/>
      <point x="744" y="1389"/>
      <point x="852" y="1166"/>
      <point x="852" y="733" type="curve" smooth="yes"/>
      <point x="852" y="294"/>
      <point x="741" y="74"/>
    </contour>
    <contour>
      <point x="340" y="698" type="line"/>
      <point x="725" y="698" type="line"/>
      <point x="725" y="793" type="line"/>
      <point x="340" y="793" type="line"/>
    </contour>
  </outline>
</glyph>
<glyph name="pi" format="2">
  <advance width="870"/>
  <unicode hex="03C0"/>
  <note>
pi
</note>
  <outline>
    <contour>
      <point x="743" y="-12" type="curve" smooth="yes"/>
      <point x="781" y="-12"/>
      <point x="806" y="-9"/>
      <point x="819" y="-4" type="curve"/>
      <point x="819" y="80" type="line"/>
      <point x="801" y="79"/>
      <point x="784" y="77"/>
      <point x="766" y="76" type="curve"/>
      <point x="706" y="76"/>
      <point x="680" y="120"/>
      <point x="680" y="233" type="curve" smooth="yes"/>
      <point x="680" y="999" type="line"/>
      <point x="834" y="999" type="line"/>
      <point x="834" y="1085" type="line"/>
      <point x="92" y="1085" type="line"/>
      <point x="14" y="1034" type="line"/>
      <point x="14" y="999" type="line"/>
      <point x="166" y="999" type="line"/>
      <point x="166" y="0" type="line"/>
      <point x="262" y="0" type="line"/>
      <point x="262" y="999" type="line"/>
      <point x="584" y="999" type="line"/>
      <point x="584" y="233" type="line" smooth="yes"/>
      <point x="584" y="69"/>
      <point x="632" y="-12"/>
    </contour>
  </outline>
</glyph>
<glyph name="sigmafinal" format="2">
  <advance width="614"/>
  <unicode hex="03C2"/>
  <note>
sigma1
</note>
  <outline>
    <contour>
      <point x="367" y="-422" type="curve"/>
      <point x="467" y="-422" type="line"/>
      <point x="536" y="-333"/>
      <point x="586" y="-217"/>
      <point x="586" y="-156" type="curve" smooth="yes"/>
      <point x="586" y="-112"/>
      <point x="580" y="-77"/>
      <point x="568" y="-52" type="curve" smooth="yes"/>
      <point x="544" y="-1"/>
      <point x="487" y="46"/>
      <point x="371" y="113" type="curve" smooth="yes"/>
      <point x="316" y="144"/>
      <point x="277" y="176"/>
      <point x="256" y="208" type="curve" smooth="yes"/>
      <point x="212" y="271"/>
      <point x="195" y="366"/>
      <point x="195" y="539" type="curve" smooth="yes"/>
      <point x="195.0" y="857.1236654773221"/>
      <point x="275.0941289311407" y="1016.0"/>
      <point x="434" y="1016" type="curve" smooth="yes"/>
      <point x="465" y="1016"/>
      <point x="511" y="1007"/>
      <point x="559" y="983" type="curve"/>
      <point x="594" y="1069" type="line"/>
      <point x="549" y="1094"/>
      <point x="493" y="1106"/>
      <point x="426" y="1106" type="curve" smooth="yes"/>
      <point x="209" y="1106"/>
      <point x="96" y="908"/>
      <point x="96" y="537" type="curve" smooth="yes"/>
      <point x="96" y="267.0"/>
      <point x="125.49125317183052" y="134.97083477293256"/>
      <point x="324" y="29" type="curve" smooth="yes"/>
      <point x="433.46584494288743" y="-27.067871800015503"/>
      <point x="487.0" y="-85.25574070338781"/>
      <point x="487" y="-162" type="curve" smooth="yes"/>
      <point x="487" y="-229"/>
      <point x="438" y="-330"/>
    </contour>
  </outline>
</glyph>
<glyph name="Nje-cy" format="2">
  <advance width="1341"/>
  <unicode hex="040A"/>
  <note>
afii10059
</note>
  <outline>
    <contour>
      <point x="160" y="0" type="line"/>
      <point x="258" y="0" type="line"/>
      <point x="258" y="723" type="line"/>
      <point x="672" y="723" type="line"/>
      <point x="672" y="0" type="line"/>
      <point x="887" y="0" type="line" smooth="yes"/>
      <point x="1124" y="0"/>
      <point x="1268" y="154"/>
      <point x="1268" y="410" type="curve" smooth="yes"/>
      <point x="1268" y="687"/>
      <point x="1146" y="813"/>
      <point x="885" y="813" type="curve" smooth="yes"/>
      <point x="770" y="813" type="line"/>
      <point x="770" y="1462" type="line"/>
      <point x="672" y="1462" type="line"/>
      <point x="672" y="813" type="line"/>
      <point x="258" y="813" type="line"/>
      <point x="258" y="1462" type="line"/>
      <point x="160" y="1462" type="line"/>
    </contour>
    <contour>
      <point x="770" y="90" type="line"/>
      <point x="770" y="723" type="line"/>
      <point x="889" y="723" type="line" smooth="yes"/>
      <point x="1081" y="723"/>
      <point x="1167" y="625"/>
      <point x="1167" y="410" type="curve" smooth="yes"/>
      <point x="1167" y="203"/>
      <point x="1070" y="90"/>
      <point x="891" y="90" type="curve" smooth="yes"/>
    </contour>
  </outline>
</glyph>
<glyph name="De-cy" format="2">
  <advance width="938"/>
  <unicode hex="0414"/>
  <note>
afii10021
</note>
  <outline>
    <contour>
      <point x="10" y="-369" type="line"/>
      <point x="104" y="-369" type="line"/>
      <point x="104" y="0" type="line"/>
      <point x="803" y="0" type="line"/>
      <point x="803" y="-369" type="line"/>
      <point x="897" y="-369" type="line"/>
      <point x="897" y="94" type="line"/>
      <point x="772" y="94" type="line"/>
      <point x="772" y="1462" type="line"/>
      <point x="315" y="1462" type="line"/>
      <point x="315" y="946"/>
      <point x="255" y="573"/>
      <point x="98" y="94" type="curve"/>
      <point x="10" y="94" type="line"/>
    </contour>
    <contour>
      <point x="199" y="94" type="line"/>
      <point x="328" y="473"/>
      <point x="399" y="898"/>
      <point x="414" y="1368" type="curve"/>
      <point x="674" y="1368" type="line"/>
      <point x="674" y="94" type="line"/>
    </contour>
  </outline>
</glyph>
<glyph name="Ii-cy" format="2">
  <advance width="1090"/>
  <unicode hex="0418"/>
  <note>
afii10026
</note>
  <anchor x="1070" y="0" name="bottomright"/>
  <anchor x="545" y="1462" name="top"/>
  <outline>
    <contour>
      <point x="160" y="0" type="line"/>
      <point x="285" y="0" type="line"/>
      <point x="838" y="1311" type="line"/>
      <point x="846" y="1311" type="line"/>
      <point x="838" y="1220"/>
      <point x="834" y="1133"/>
      <point x="834" y="1049" type="curve" smooth="yes"/>
      <point x="834" y="0" type="line"/>
      <point x="930" y="0" type="line"/>
      <point x="930" y="1462" type="line"/>
      <point x="803" y="1462" type="line"/>
      <point x="254" y="166" type="line"/>
      <point x="246" y="166" type="line"/>
      <point x="253" y="297"/>
      <point x="256" y="340"/>
      <point x="256" y="440" type="curve" smooth="yes"/>
      <point x="256" y="1462" type="line"/>
      <point x="160" y="1462" type="line"/>
    </contour>
  </outline>
</glyph>
<glyph name="Che-cy" format="2">
  <advance width="1001"/>
  <unicode hex="0427"/>
  <note>
afii10041
</note>
  <anchor x="981" y="0" name="bottomright"/>
  <anchor x="501" y="1462" name="top"/>
  <outline>
    <contour>
      <point x="743" y="0" type="line"/>
      <point x="842" y="0" type="line"/>
      <point x="842" y="1462" type="line"/>
      <point x="743" y="1462" type="line"/>
      <point x="743" y="713" type="line"/>
      <point x="611" y="642"/>
      <point x="535" y="627"/>
      <point x="432" y="627" type="curve" smooth="yes"/>
      <point x="296" y="627"/>
      <point x="233" y="715"/>
      <point x="233" y="895" type="curve" smooth="yes"/>
      <point x="233" y="1462" type="line"/>
      <point x="135" y="1462" type="line"/>
      <point x="135" y="899" type="line" smooth="yes"/>
      <point x="135" y="654"/>
      <point x="231" y="532"/>
      <point x="424" y="532" type="curve" smooth="yes"/>
      <point x="525" y="532"/>
      <point x="631" y="564"/>
      <point x="743" y="627" type="curve"/>
    </contour>
  </outline>
</glyph>
<glyph name="Ia-cy" format="2">
  <advance width="877"/>
  <unicode hex="042F"/>
  <note>
afii10049
</note>
  <anchor x="439" y="1462" name="top"/>
  <outline>
    <contour>
      <point x="43" y="0" type="line"/>
      <point x="154" y="0" type="line"/>
      <point x="426" y="637" type="line"/>
      <point x="618" y="637" type="line"/>
      <point x="618" y="0" type="line"/>
      <point x="717" y="0" type="line"/>
      <point x="717" y="1462" type="line"/>
      <point x="479" y="1462" type="line" smooth="yes"/>
      <point x="226" y="1462"/>
      <point x="100" y="1322"/>
      <point x="100" y="1042" type="curve" smooth="yes"/>
      <point x="100" y="838"/>
      <point x="187" y="692"/>
      <point x="334" y="653" type="curve"/>
    </contour>
    <contour>
      <point x="467" y="725" type="line" smooth="yes"/>
      <point x="283" y="725"/>
      <point x="203" y="826"/>
      <point x="203" y="1047" type="curve" smooth="yes"/>
      <point x="203" y="1275"/>
      <point x="286" y="1372"/>
      <point x="494" y="1372" type="curve" smooth="yes"/>
      <point x="618" y="1372" type="line"/>
      <point x="618" y="725" type="line"/>
    </contour>
  </outline>
</glyph>
<glyph name="ve-cy" format="2">
  <advance width="784"/>
  <unicode hex="0432"/>
  <note>
afii10067
</note>
  <outline>
    <contour>
      <point x="145" y="0" type="line"/>
      <point x="395" y="0" type="line" smooth="yes"/>
      <point x="588" y="0"/>
      <point x="698" y="121"/>
      <point x="698" y="326" type="curve" smooth="yes"/>
      <point x="698" y="459"/>
      <point x="635" y="553"/>
      <point x="518" y="573" type="curve"/>
      <point x="518" y="582" type="line"/>
      <point x="622" y="615"/>
      <point x="668" y="693"/>
      <point x="668" y="825" type="curve" smooth="yes"/>
      <point x="668" y="992"/>
      <point x="566" y="1085"/>
      <point x="375" y="1085" type="curve" smooth="yes"/>
      <point x="145" y="1085" type="line"/>
    </contour>
    <contour>
      <point x="240" y="86" type="line"/>
      <point x="240" y="532" type="line"/>
      <point x="401" y="532" type="line" smooth="yes"/>
      <point x="532" y="532"/>
      <point x="600" y="475"/>
      <point x="600" y="328" type="curve" smooth="yes"/>
      <point x="600" y="159"/>
      <point x="538" y="86"/>
      <point x="397" y="86" type="curve" smooth="yes"/>
    </contour>
    <contour>
      <point x="240" y="614" type="line"/>
      <point x="240" y="999" type="line"/>
      <point x="377" y="999" type="line" smooth="yes"/>
      <point x="505" y="999"/>
      <point x="569" y="941"/>
      <point x="569" y="825" type="curve" smooth="yes"/>
      <point x="569" y="677"/>
      <point x="521" y="614"/>
      <point x="397" y="614" type="curve" smooth="yes"/>
    </contour>
  </outline>
</glyph>
<glyph name="de-cy" format="2">
  <advance width="788"/>
  <unicode hex="0434"/>
  <note>
afii10069
</note>
  <outline>
    <contour>
      <point x="10" y="-369" type="line"/>
      <point x="104" y="-369" type="line"/>
      <point x="104" y="0" type="line"/>
      <point x="649" y="0" type="line"/>
      <point x="649" y="-369" type="line"/>
      <point x="743" y="-369" type="line"/>
      <point x="743" y="90" type="line"/>
      <point x="633" y="90" type="line"/>
      <point x="633" y="1085" type="line"/>
      <point x="264" y="1085" type="line"/>
      <point x="264" y="701"/>
      <point x="206" y="350"/>
      <point x="94" y="90" type="curve"/>
      <point x="10" y="90" type="line"/>
    </contour>
    <contour>
      <point x="186" y="90" type="line"/>
      <point x="277" y="282"/>
      <point x="348" y="679"/>
      <point x="352" y="999" type="curve"/>
      <point x="539" y="999" type="line"/>
      <point x="539" y="90" type="line"/>
    </contour>
  </outline>
</glyph>
<glyph name="ka-cy" format="2">
  <advance width="692"/>
  <unicode hex="043A"/>
  <note>
afii10076
</note>
  <anchor x="672" y="0" name="bottomright"/>
  <anchor x="446" y="1085" name="top"/>
  <outline>
    <contour>
      <point x="145" y="0" type="line"/>
      <point x="240" y="0" type="line"/>
      <point x="240" y="567" type="line"/>
      <point x="569" y="0" type="line"/>
      <point x="682" y="0" type="line"/>
      <point x="336" y="575" type="line"/>
      <point x="655" y="1085" type="line"/>
      <point x="547" y="1085" type="line"/>
      <point x="240" y="575" type="line"/>
      <point x="240" y="1085" type="line"/>
      <point x="145" y="1085" type="line"/>
    </contour>
  </outline>
</glyph>
<glyph name="softsign-cy" format="2">
  <advance width="784"/>
  <unicode hex="044C"/>
  <note>
afii10094
</note>
  <outline>
    <contour>
      <point x="145" y="0" type="line"/>
      <point x="379" y="0" type="line" smooth="yes"/>
      <point x="587" y="0"/>
      <point x="707" y="112"/>
      <point x="707" y="305" type="curve" smooth="yes"/>
      <point x="707" y="500"/>
      <point x="592" y="610"/>
      <point x="381" y="610" type="curve" smooth="yes"/>
      <point x="240" y="610" type="line"/>
      <point x="240" y="1085" type="line"/>
      <point x="145" y="1085" type="line"/>
    </contour>
    <contour>
      <point x="240" y="86" type="line"/>
      <point x="240" y="524" type="line"/>
      <point x="381" y="524" type="line" smooth="yes"/>
      <point x="532" y="524"/>
      <point x="608" y="451"/>
      <point x="608" y="305" type="curve" smooth="yes"/>
      <point x="608" y="159"/>
      <point x="532" y="86"/>
      <point x="379" y="86" type="curve" smooth="yes"/>
    </contour>
  </outline>
</glyph>
<glyph name="ereversed-cy" format="2">
  <advance width="682"/>
  <unicode hex="044D"/>
  <note>
afii10095
</note>
  <anchor x="341" y="1085" name="top"/>
  <outline>
    <contour>
      <point x="225" y="-20" type="curve" smooth="yes"/>
      <point x="465" y="-20"/>
      <point x="586" y="176"/>
      <point x="586" y="549" type="curve" smooth="yes"/>
      <point x="586" y="916"/>
      <point x="467" y="1106"/>
      <point x="244" y="1106" type="curve" smooth="yes"/>
      <point x="181" y="1106"/>
      <point x="122" y="1093"/>
      <point x="68" y="1067" type="curve"/>
      <point x="104" y="981" type="line"/>
      <point x="129" y="997"/>
      <point x="190" y="1016"/>
      <point x="233" y="1016" type="curve" smooth="yes"/>
      <point x="390" y="1016"/>
      <point x="474" y="881"/>
      <point x="485" y="610" type="curve"/>
      <point x="193" y="610" type="line"/>
      <point x="193" y="524" type="line"/>
      <point x="487" y="524" type="line"/>
      <point x="480" y="208"/>
      <point x="394" y="70"/>
      <point x="219" y="70" type="curve" smooth="yes"/>
      <point x="164" y="70"/>
      <point x="108" y="83"/>
      <point x="51" y="109" type="curve"/>
      <point x="51" y="18" type="line"/>
      <point x="94" y="-5"/>
      <point x="164" y="-20"/>
    </contour>
  </outline>
</glyph>
<glyph name="e-cy" format="2">
  <advance width="682"/>
  <unicode hex="0454"/>
  <note>
afii10101
</note>
  <outline>
    <contour>
      <point x="444" y="-20" type="curve" smooth="yes"/>
      <point x="500" y="-20"/>
      <point x="575" y="-5"/>
      <point x="618" y="18" type="curve"/>
      <point x="618" y="109" type="line"/>
      <point x="563" y="83"/>
      <point x="508" y="70"/>
      <point x="453" y="70" type="curve" smooth="yes"/>
      <point x="284" y="70"/>
      <point x="198" y="221"/>
      <point x="195" y="524" type="curve"/>
      <point x="489" y="524" type="line"/>
      <point x="489" y="610" type="line"/>
      <point x="195" y="610" type="line"/>
      <point x="208" y="881"/>
      <point x="294" y="1016"/>
      <point x="455" y="1016" type="curve" smooth="yes"/>
      <point x="503" y="1016"/>
      <point x="561" y="998"/>
      <point x="590" y="981" type="curve"/>
      <point x="625" y="1067" type="line"/>
      <point x="571" y="1093"/>
      <point x="511" y="1106"/>
      <point x="446" y="1106" type="curve" smooth="yes"/>
      <point x="215" y="1106"/>
      <point x="96" y="908"/>
      <point x="96" y="537" type="curve" smooth="yes"/>
      <point x="96" y="170"/>
      <point x="213" y="-20"/>
    </contour>
  </outline>
</glyph>
<glyph name="nje-cy" format="2">
  <advance width="1257"/>
  <unicode hex="045A"/>
  <note>
afii10107
</note>
  <outline>
    <contour>
      <point x="145" y="0" type="line"/>
      <point x="240" y="0" type="line"/>
      <point x="240" y="524" type="line"/>
      <point x="618" y="524" type="line"/>
      <point x="618" y="0" type="line"/>
      <point x="852" y="0" type="line" smooth="yes"/>
      <point x="1060" y="0"/>
      <point x="1180" y="112"/>
      <point x="1180" y="305" type="curve" smooth="yes"/>
      <point x="1180" y="500"/>
      <point x="1065" y="610"/>
      <point x="854" y="610" type="curve" smooth="yes"/>
      <point x="713" y="610" type="line"/>
      <point x="713" y="1085" type="line"/>
      <point x="618" y="1085" type="line"/>
      <point x="618" y="610" type="line"/>
      <point x="240" y="610" type="line"/>
      <point x="240" y="1085" type="line"/>
      <point x="145" y="1085" type="line"/>
    </contour>
    <contour>
      <point x="713" y="86" type="line"/>
      <point x="713" y="524" type="line"/>
      <point x="854" y="524" type="line" smooth="yes"/>
      <point x="1005" y="524"/>
      <point x="1081" y="451"/>
      <point x="1081" y="305" type="curve" smooth="yes"/>
      <point x="1081" y="159"/>
      <point x="1005" y="86"/>
      <point x="852" y="86" type="curve" smooth="yes"/>
    </contour>
  </outline>
</glyph>
<glyph name="tshe-cy" format="2">
  <advance width="870"/>
  <unicode hex="045B"/>
  <note>
afii10108
</note>
  <outline>
    <contour>
      <point x="145" y="0" type="line"/>
      <point x="240" y="0" type="line"/>
      <point x="240" y="594" type="line" smooth="yes"/>
      <point x="240" y="751"/>
      <point x="262" y="861"/>
      <point x="307" y="930" type="curve" smooth="yes"/>
      <point x="345" y="990"/>
      <point x="400" y="1018"/>
      <point x="471" y="1018" type="curve" smooth="yes"/>
      <point x="587" y="1018"/>
      <point x="635" y="944"/>
      <point x="635" y="748" type="curve" smooth="yes"/>
      <point x="635" y="0" type="line"/>
      <point x="729" y="0" type="line"/>
      <point x="729" y="748" type="line" smooth="yes"/>
      <point x="729" y="985"/>
      <point x="659" y="1106"/>
      <point x="475" y="1106" type="curve" smooth="yes"/>
      <point x="382" y="1106"/>
      <point x="287" y="1044"/>
      <point x="244" y="936" type="curve"/>
      <point x="236" y="936" type="line"/>
      <point x="239" y="967"/>
      <point x="240" y="1005"/>
      <point x="240" y="1051" type="curve" smooth="yes"/>
      <point x="240" y="1270" type="line"/>
      <point x="502" y="1270" type="line"/>
      <point x="502" y="1354" type="line"/>
      <point x="240" y="1354" type="line"/>
      <point x="240" y="1556" type="line"/>
      <point x="145" y="1556" type="line"/>
      <point x="145" y="1354" type="line"/>
      <point x="27" y="1354" type="line"/>
      <point x="27" y="1270" type="line"/>
      <point x="145" y="1270" type="line"/>
    </contour>
  </outline>
</glyph>
<glyph name="Yuslittle-cy" format="2">
  <advance width="895"/>
  <unicode hex="0466"/>
  <note>
uni0466
</note>
  <outline>
    <contour>
      <point x="0" y="0" type="line"/>
      <point x="102" y="0" type="line"/>
      <point x="291" y="719" type="line"/>
      <point x="401" y="719" type="line"/>
      <point x="401" y="0" type="line"/>
      <point x="496" y="0" type="line"/>
      <point x="496" y="719" type="line"/>
      <point x="600" y="719" type="line"/>
      <point x="795" y="0" type="line"/>
      <point x="895" y="0" type="line"/>
      <point x="489" y="1462" type="line"/>
      <point x="397" y="1462" type="line"/>
    </contour>
    <contour>
      <point x="315" y="813" type="line"/>
      <point x="346" y="931"/>
      <point x="377" y="1049"/>
      <point x="408" y="1167" type="curve" smooth="yes"/>
      <point x="425" y="1225"/>
      <point x="436" y="1283"/>
      <point x="442" y="1341" type="curve"/>
      <point x="451" y="1280"/>
      <point x="464" y="1222"/>
      <point x="479" y="1167" type="curve" smooth="yes"/>
      <point x="510" y="1049"/>
      <point x="542" y="931"/>
      <point x="573" y="813" type="curve"/>
    </contour>
  </outline>
</glyph>
<glyph name="yuslittle-cy" format="2">
  <advance width="778"/>
  <unicode hex="0467"/>
  <note>
uni0467
</note>
  <outline>
    <contour>
      <point x="10" y="0" type="line"/>
      <point x="106" y="0" type="line"/>
      <point x="260" y="524" type="line"/>
      <point x="342" y="524" type="line"/>
      <point x="342" y="0" type="line"/>
      <point x="432" y="0" type="line"/>
      <point x="432" y="524" type="line"/>
      <point x="516" y="524" type="line"/>
      <point x="672" y="0" type="line"/>
      <point x="768" y="0" type="line"/>
      <point x="440" y="1085" type="line"/>
      <point x="342" y="1085" type="line"/>
    </contour>
    <contour>
      <point x="287" y="610" type="line"/>
      <point x="318" y="717"/>
      <point x="341" y="796"/>
      <point x="355" y="848" type="curve" smooth="yes"/>
      <point x="368" y="896"/>
      <point x="378" y="937"/>
      <point x="385" y="985" type="curve"/>
      <point x="393" y="985" type="line"/>
      <point x="394" y="969"/>
      <point x="405" y="913"/>
      <point x="420" y="855" type="curve" smooth="yes"/>
      <point x="432" y="809"/>
      <point x="450" y="744"/>
      <point x="489" y="610" type="curve"/>
    </contour>
  </outline>
</glyph>
<glyph name="Yuslittleiotified-cy" format="2">
  <advance width="1284"/>
  <unicode hex="0468"/>
  <note>
uni0468
</note>
  <outline>
    <contour>
      <point x="160" y="0" type="line"/>
      <point x="258" y="0" type="line"/>
      <point x="258" y="719" type="line"/>
      <point x="584" y="719" type="line"/>
      <point x="389" y="0" type="line"/>
      <point x="492" y="0" type="line"/>
      <point x="680" y="719" type="line"/>
      <point x="791" y="719" type="line"/>
      <point x="791" y="0" type="line"/>
      <point x="885" y="0" type="line"/>
      <point x="885" y="719" type="line"/>
      <point x="989" y="719" type="line"/>
      <point x="1184" y="0" type="line"/>
      <point x="1284" y="0" type="line"/>
      <point x="879" y="1462" type="line"/>
      <point x="786" y="1462" type="line"/>
      <point x="610" y="813" type="line"/>
      <point x="258" y="813" type="line"/>
      <point x="258" y="1462" type="line"/>
      <point x="160" y="1462" type="line"/>
    </contour>
    <contour>
      <point x="705" y="813" type="line"/>
      <point x="775" y="1080"/>
      <point x="820" y="1234"/>
      <point x="831" y="1341" type="curve"/>
      <point x="848" y="1229"/>
      <point x="893" y="1072"/>
      <point x="963" y="813" type="curve"/>
    </contour>
  </outline>
</glyph>
<glyph name="Yusbig-cy" format="2">
  <advance width="1010"/>
  <unicode hex="046A"/>
  <note>
uni046A
</note>
  <outline>
    <contour>
      <point x="10" y="0" type="line"/>
      <point x="115" y="0" type="line"/>
      <point x="217" y="483" type="line" smooth="yes"/>
      <point x="232" y="555"/>
      <point x="249" y="609"/>
      <point x="268" y="645" type="curve" smooth="yes"/>
      <point x="304" y="716"/>
      <point x="351" y="743"/>
      <point x="446" y="743" type="curve" smooth="yes"/>
      <point x="455" y="743" type="line"/>
      <point x="455" y="0" type="line"/>
      <point x="553" y="0" type="line"/>
      <point x="553" y="743" type="line"/>
      <point x="561" y="743" type="line" smooth="yes"/>
      <point x="636" y="743"/>
      <point x="685" y="726"/>
      <point x="721" y="679" type="curve" smooth="yes"/>
      <point x="753" y="638"/>
      <point x="774" y="576"/>
      <point x="793" y="483" type="curve" smooth="yes"/>
      <point x="895" y="0" type="line"/>
      <point x="999" y="0" type="line"/>
      <point x="899" y="457" type="line" smooth="yes"/>
      <point x="867" y="611"/>
      <point x="823" y="711"/>
      <point x="761" y="768" type="curve" smooth="yes"/>
      <point x="716" y="809"/>
      <point x="662" y="828"/>
      <point x="596" y="831" type="curve"/>
      <point x="895" y="1376" type="line"/>
      <point x="895" y="1462" type="line"/>
      <point x="115" y="1462" type="line"/>
      <point x="115" y="1376" type="line"/>
      <point x="412" y="831" type="line"/>
      <point x="338" y="828"/>
      <point x="280" y="805"/>
      <point x="233" y="755" type="curve" smooth="yes"/>
      <point x="179" y="697"/>
      <point x="141" y="602"/>
      <point x="111" y="457" type="curve" smooth="yes"/>
    </contour>
    <contour>
      <point x="504" y="848" type="line"/>
      <point x="231" y="1368" type="line"/>
      <point x="778" y="1368" type="line"/>
    </contour>
  </outline>
</glyph>
<glyph name="Ksi-cy" format="2">
  <advance width="813"/>
  <unicode hex="046E"/>
  <note>
uni046E
</note>
  <outline>
    <contour>
      <point x="596" y="-381" type="curve"/>
      <point x="596" y="-283" type="line"/>
      <point x="561" y="-274"/>
      <point x="526" y="-270"/>
      <point x="489" y="-270" type="curve" smooth="yes"/>
      <point x="450" y="-270"/>
      <point x="428" y="-273"/>
      <point x="407" y="-277" type="curve" smooth="yes"/>
      <point x="383" y="-281"/>
      <point x="362" y="-285"/>
      <point x="319" y="-285" type="curve" smooth="yes"/>
      <point x="215" y="-285"/>
      <point x="160" y="-232"/>
      <point x="160" y="-139" type="curve" smooth="yes"/>
      <point x="160" y="-55"/>
      <point x="214" y="-4"/>
      <point x="313" y="0" type="curve" smooth="yes"/>
      <point x="554" y="8"/>
      <point x="686" y="145"/>
      <point x="686" y="401" type="curve" smooth="yes"/>
      <point x="686" y="602"/>
      <point x="600" y="731"/>
      <point x="416" y="754" type="curve"/>
      <point x="416" y="762" type="line"/>
      <point x="569" y="802"/>
      <point x="666" y="937"/>
      <point x="666" y="1128" type="curve" smooth="yes"/>
      <point x="666" y="1313"/>
      <point x="585" y="1438"/>
      <point x="440" y="1473" type="curve"/>
      <point x="478" y="1555"/>
      <point x="520" y="1640"/>
      <point x="571" y="1640" type="curve" smooth="yes"/>
      <point x="582" y="1640"/>
      <point x="593" y="1637"/>
      <point x="604" y="1630" type="curve"/>
      <point x="604" y="1714" type="line"/>
      <point x="588" y="1722"/>
      <point x="571" y="1726"/>
      <point x="553" y="1726" type="curve" smooth="yes"/>
      <point x="477" y="1726"/>
      <point x="415" y="1621"/>
      <point x="360" y="1509" type="curve"/>
      <point x="303" y="1604"/>
      <point x="252" y="1678"/>
      <point x="207" y="1731" type="curve"/>
      <point x="135" y="1731" type="line"/>
      <point x="135" y="1714" type="line"/>
      <point x="180" y="1653"/>
      <point x="244" y="1536"/>
      <point x="272" y="1475" type="curve"/>
      <point x="198" y="1458"/>
      <point x="135" y="1421"/>
      <point x="84" y="1364" type="curve"/>
      <point x="150" y="1296" type="line"/>
      <point x="193" y="1351"/>
      <point x="263" y="1389"/>
      <point x="342" y="1389" type="curve" smooth="yes"/>
      <point x="483" y="1389"/>
      <point x="565" y="1304"/>
      <point x="565" y="1128" type="curve" smooth="yes"/>
      <point x="565" y="916"/>
      <point x="458" y="805"/>
      <point x="270" y="805" type="curve" smooth="yes"/>
      <point x="164" y="805" type="line"/>
      <point x="164" y="711" type="line"/>
      <point x="264" y="711" type="line" smooth="yes"/>
      <point x="488" y="711"/>
      <point x="584" y="615"/>
      <point x="584" y="399" type="curve" smooth="yes"/>
      <point x="584" y="194"/>
      <point x="497" y="100"/>
      <point x="313" y="94" type="curve"/>
      <point x="146" y="88"/>
      <point x="61" y="2"/>
      <point x="61" y="-139" type="curve" smooth="yes"/>
      <point x="61" y="-288"/>
      <point x="149" y="-379"/>
      <point x="324" y="-379" type="curve" smooth="yes"/>
      <point x="365" y="-379"/>
      <point x="389" y="-375"/>
      <point x="412" y="-372" type="curve" smooth="yes"/>
      <point x="434" y="-368"/>
      <point x="456" y="-365"/>
      <point x="492" y="-365" type="curve" smooth="yes"/>
      <point x="532" y="-365"/>
      <point x="567" y="-370"/>
    </contour>
  </outline>
</glyph>
<glyph name="uni047E" format="2">
  <advance width="1380"/>
  <unicode hex="047E"/>
  <note>
uni047E
</note>
  <outline>
    <contour>
      <point x="475" y="-20" type="curve" smooth="yes"/>
      <point x="559" y="-20"/>
      <point x="620" y="4"/>
      <point x="689" y="76" type="curve"/>
      <point x="690" y="76" type="line"/>
      <point x="757" y="7"/>
      <point x="822" y="-20"/>
      <point x="903" y="-20" type="curve" smooth="yes"/>
      <point x="976" y="-20"/>
      <point x="1040" y="10"/>
      <point x="1096" y="70" type="curve" smooth="yes"/>
      <point x="1208" y="190"/>
      <point x="1270" y="426"/>
      <point x="1270" y="735" type="curve" smooth="yes"/>
      <point x="1270" y="1013"/>
      <point x="1222" y="1227"/>
      <point x="1137" y="1354" type="curve" smooth="yes"/>
      <point x="1081" y="1439"/>
      <point x="1007" y="1485"/>
      <point x="920" y="1485" type="curve" smooth="yes"/>
      <point x="856" y="1485"/>
      <point x="794" y="1464"/>
      <point x="733" y="1423" type="curve"/>
      <point x="780" y="1341" type="line"/>
      <point x="817" y="1374"/>
      <point x="860" y="1391"/>
      <point x="911" y="1391" type="curve" smooth="yes"/>
      <point x="990" y="1391"/>
      <point x="1052" y="1333"/>
      <point x="1098" y="1217" type="curve" smooth="yes"/>
      <point x="1144" y="1101"/>
      <point x="1167" y="940"/>
      <point x="1167" y="733" type="curve" smooth="yes"/>
      <point x="1167" y="600"/>
      <point x="1156" y="483"/>
      <point x="1133" y="383" type="curve" smooth="yes"/>
      <point x="1088" y="183"/>
      <point x="1004" y="74"/>
      <point x="901" y="74" type="curve" smooth="yes"/>
      <point x="839" y="74"/>
      <point x="785" y="101"/>
      <point x="739" y="156" type="curve"/>
      <point x="739" y="627" type="line"/>
      <point x="641" y="627" type="line"/>
      <point x="641" y="156" type="line"/>
      <point x="592" y="101"/>
      <point x="539" y="74"/>
      <point x="481" y="74" type="curve" smooth="yes"/>
      <point x="428" y="74"/>
      <point x="381" y="100"/>
      <point x="341" y="153" type="curve" smooth="yes"/>
      <point x="260" y="257"/>
      <point x="213" y="461"/>
      <point x="213" y="733" type="curve" smooth="yes"/>
      <point x="213" y="939"/>
      <point x="236" y="1100"/>
      <point x="282" y="1217" type="curve" smooth="yes"/>
      <point x="328" y="1333"/>
      <point x="390" y="1391"/>
      <point x="469" y="1391" type="curve" smooth="yes"/>
      <point x="520" y="1391"/>
      <point x="563" y="1374"/>
      <point x="600" y="1341" type="curve"/>
      <point x="647" y="1423" type="line"/>
      <point x="586" y="1464"/>
      <point x="524" y="1485"/>
      <point x="461" y="1485" type="curve" smooth="yes"/>
      <point x="373" y="1485"/>
      <point x="298" y="1437"/>
      <point x="241" y="1350" type="curve" smooth="yes"/>
      <point x="158" y="1222"/>
      <point x="111" y="1009"/>
      <point x="111" y="735" type="curve" smooth="yes"/>
      <point x="111" y="580"/>
      <point x="126" y="445"/>
      <point x="156" y="332" type="curve" smooth="yes"/>
      <point x="216" y="104"/>
      <point x="331" y="-20"/>
    </contour>
    <contour>
      <point x="451" y="1597" type="line"/>
      <point x="463" y="1597" type="line"/>
      <point x="500" y="1694" type="line"/>
      <point x="641" y="1694" type="line"/>
      <point x="680" y="1597" type="line"/>
      <point x="692" y="1597" type="line"/>
      <point x="731" y="1694" type="line"/>
      <point x="872" y="1694" type="line"/>
      <point x="909" y="1597" type="line"/>
      <point x="922" y="1597" type="line"/>
      <point x="981" y="1749" type="line"/>
      <point x="981" y="1776" type="line"/>
      <point x="391" y="1776" type="line"/>
      <point x="391" y="1749" type="line"/>
    </contour>
  </outline>
</glyph>
<glyph name="uni047F" format="2">
  <advance width="1161"/>
  <unicode hex="047F"/>
  <note>
uni047F
</note>
  <outline>
    <contour>
      <point x="332" y="1243" type="line"/>
      <point x="344" y="1243" type="line"/>
      <point x="381" y="1339" type="line"/>
      <point x="522" y="1339" type="line"/>
      <point x="561" y="1243" type="line"/>
      <point x="573" y="1243" type="line"/>
      <point x="612" y="1339" type="line"/>
      <point x="754" y="1339" type="line"/>
      <point x="791" y="1243" type="line"/>
      <point x="803" y="1243" type="line"/>
      <point x="862" y="1395" type="line"/>
      <point x="862" y="1421" type="line"/>
      <point x="272" y="1421" type="line"/>
      <point x="272" y="1395" type="line"/>
    </contour>
    <component base="omega-cy"/>
  </outline>
</glyph>
<glyph name="hundredthousandssigncomb-cy" format="2">
  <advance width="1927"/>
  <unicode hex="0488"/>
  <note>
uni0488
</note>
  <outline>
    <contour>
      <point x="1294" y="946" type="curve"/>
      <point x="1362" y="946" type="line"/>
      <point x="1374" y="1025"/>
      <point x="1416" y="1057"/>
      <point x="1495" y="1057" type="curve" smooth="yes"/>
      <point x="1574" y="1057"/>
      <point x="1618" y="1020"/>
      <point x="1628" y="946" type="curve"/>
      <point x="1696" y="946" type="line"/>
      <point x="1690" y="1076"/>
      <point x="1624" y="1141"/>
      <point x="1499" y="1141" type="curve" smooth="yes"/>
      <point x="1371" y="1141"/>
      <point x="1298" y="1066"/>
    </contour>
    <contour>
      <point x="1485" y="457" type="curve"/>
      <point x="1552" y="457" type="line"/>
      <point x="1565" y="536"/>
      <point x="1607" y="567"/>
      <point x="1686" y="567" type="curve" smooth="yes"/>
      <point x="1765" y="567"/>
      <point x="1809" y="530"/>
      <point x="1819" y="457" type="curve"/>
      <point x="1886" y="457" type="line"/>
      <point x="1880" y="586"/>
      <point x="1815" y="651"/>
      <point x="1690" y="651" type="curve" smooth="yes"/>
      <point x="1562" y="651"/>
      <point x="1489" y="576"/>
    </contour>
    <contour>
      <point x="1294" y="-41" type="curve"/>
      <point x="1362" y="-41" type="line"/>
      <point x="1374" y="38"/>
      <point x="1416" y="70"/>
      <point x="1495" y="70" type="curve" smooth="yes"/>
      <point x="1574" y="70"/>
      <point x="1618" y="33"/>
      <point x="1628" y="-41" type="curve"/>
      <point x="1696" y="-41" type="line"/>
      <point x="1690" y="89"/>
      <point x="1624" y="154"/>
      <point x="1499" y="154" type="curve" smooth="yes"/>
      <point x="1371" y="154"/>
      <point x="1298" y="79"/>
    </contour>
    <contour>
      <point x="754" y="-319" type="curve"/>
      <point x="821" y="-319" type="line"/>
      <point x="834" y="-242"/>
      <point x="877" y="-209"/>
      <point x="954" y="-209" type="curve" smooth="yes"/>
      <point x="1033" y="-209"/>
      <point x="1077" y="-246"/>
      <point x="1087" y="-319" type="curve"/>
      <point x="1155" y="-319" type="line"/>
      <point x="1149" y="-190"/>
      <point x="1083" y="-125"/>
      <point x="958" y="-125" type="curve" smooth="yes"/>
      <point x="830" y="-125"/>
      <point x="758" y="-200"/>
    </contour>
    <contour>
      <point x="229" y="-41" type="curve"/>
      <point x="297" y="-41" type="line"/>
      <point x="309" y="38"/>
      <point x="351" y="70"/>
      <point x="430" y="70" type="curve" smooth="yes"/>
      <point x="509" y="70"/>
      <point x="553" y="33"/>
      <point x="563" y="-41" type="curve"/>
      <point x="631" y="-41" type="line"/>
      <point x="625" y="89"/>
      <point x="559" y="154"/>
      <point x="434" y="154" type="curve" smooth="yes"/>
      <point x="306" y="154"/>
      <point x="233" y="79"/>
    </contour>
    <contour>
      <point x="41" y="457" type="curve"/>
      <point x="109" y="457" type="line"/>
      <point x="121" y="536"/>
      <point x="163" y="567"/>
      <point x="242" y="567" type="curve" smooth="yes"/>
      <point x="321" y="567"/>
      <point x="365" y="530"/>
      <point x="375" y="457" type="curve"/>
      <point x="442" y="457" type="line"/>
      <point x="436" y="586"/>
      <point x="371" y="651"/>
      <point x="246" y="651" type="curve" smooth="yes"/>
      <point x="118" y="651"/>
      <point x="45" y="576"/>
    </contour>
    <contour>
      <point x="229" y="946" type="curve"/>
      <point x="297" y="946" type="line"/>
      <point x="309" y="1025"/>
      <point x="351" y="1057"/>
      <point x="430" y="1057" type="curve" smooth="yes"/>
      <point x="509" y="1057"/>
      <point x="553" y="1020"/>
      <point x="563" y="946" type="curve"/>
      <point x="631" y="946" type="line"/>
      <point x="625" y="1076"/>
      <point x="559" y="1141"/>
      <point x="434" y="1141" type="curve" smooth="yes"/>
      <point x="306" y="1141"/>
      <point x="233" y="1066"/>
    </contour>
    <contour>
      <point x="754" y="1231" type="curve"/>
      <point x="821" y="1231" type="line"/>
      <point x="834" y="1310"/>
      <point x="877" y="1341"/>
      <point x="954" y="1341" type="curve" smooth="yes"/>
      <point x="1033" y="1341"/>
      <point x="1077" y="1304"/>
      <point x="1087" y="1231" type="curve"/>
      <point x="1155" y="1231" type="line"/>
      <point x="1149" y="1360"/>
      <point x="1083" y="1425"/>
      <point x="958" y="1425" type="curve" smooth="yes"/>
      <point x="830" y="1425"/>
      <point x="758" y="1351"/>
    </contour>
  </outline>
</glyph>
<glyph name="Iishorttail-cy" format="2">
  <advance width="1090"/>
  <unicode hex="048A"/>
  <note>
uni048A
</note>
  <outline>
    <contour>
      <point x="813" y="-369" type="line"/>
      <point x="920" y="-369" type="line"/>
      <point x="1036" y="94" type="line"/>
      <point x="930" y="94" type="line"/>
      <point x="930" y="1462" type="line"/>
      <point x="803" y="1462" type="line"/>
      <point x="254" y="166" type="line"/>
      <point x="246" y="166" type="line"/>
      <point x="253" y="297"/>
      <point x="256" y="340"/>
      <point x="256" y="440" type="curve" smooth="yes"/>
      <point x="256" y="1462" type="line"/>
      <point x="160" y="1462" type="line"/>
      <point x="160" y="0" type="line"/>
      <point x="285" y="0" type="line"/>
      <point x="838" y="1311" type="line"/>
      <point x="846" y="1311" type="line"/>
      <point x="838" y="1220"/>
      <point x="834" y="1133"/>
      <point x="834" y="1049" type="curve" smooth="yes"/>
      <point x="834" y="0" type="line"/>
      <point x="930" y="0" type="line"/>
    </contour>
    <contour>
      <point x="540" y="1579" type="curve" smooth="yes"/>
      <point x="701" y="1579"/>
      <point x="793" y="1665"/>
      <point x="805" y="1860" type="curve"/>
      <point x="717" y="1860" type="line"/>
      <point x="705" y="1720"/>
      <point x="658" y="1657"/>
      <point x="542" y="1657" type="curve" smooth="yes"/>
      <point x="434" y="1657"/>
      <point x="384" y="1711"/>
      <point x="371" y="1860" type="curve"/>
      <point x="283" y="1860" type="line"/>
      <point x="296" y="1663"/>
      <point x="381" y="1579"/>
    </contour>
  </outline>
</glyph>
<glyph name="Ghestroke-cy" format="2">
  <advance width="686"/>
  <unicode hex="0492"/>
  <note>
uni0492
</note>
  <anchor x="170" y="0" name="cyrillicbighook"/>
  <outline>
    <contour>
      <point x="160" y="0" type="line"/>
      <point x="258" y="0" type="line"/>
      <point x="258" y="680" type="line"/>
      <point x="483" y="680" type="line"/>
      <point x="483" y="770" type="line"/>
      <point x="258" y="770" type="line"/>
      <point x="258" y="1368" type="line"/>
      <point x="670" y="1368" type="line"/>
      <point x="670" y="1462" type="line"/>
      <point x="160" y="1462" type="line"/>
      <point x="160" y="770" type="line"/>
      <point x="61" y="770" type="line"/>
      <point x="61" y="680" type="line"/>
      <point x="160" y="680" type="line"/>
    </contour>
  </outline>
</glyph>
<glyph name="Kastroke-cy" format="2">
  <advance width="825"/>
  <unicode hex="049E"/>
  <note>
uni049E
</note>
  <outline>
    <contour>
      <point x="160" y="0" type="line"/>
      <point x="258" y="0" type="line"/>
      <point x="258" y="580" type="line"/>
      <point x="371" y="729" type="line"/>
      <point x="715" y="0" type="line"/>
      <point x="825" y="0" type="line"/>
      <point x="430" y="819" type="line"/>
      <point x="797" y="1462" type="line"/>
      <point x="690" y="1462" type="line"/>
      <point x="573" y="1255"/>
      <point x="458" y="1050"/>
      <point x="427" y="994" type="curve" smooth="yes"/>
      <point x="362" y="878"/>
      <point x="270" y="710"/>
      <point x="258" y="688" type="curve"/>
      <point x="258" y="1182" type="line"/>
      <point x="451" y="1182" type="line"/>
      <point x="451" y="1272" type="line"/>
      <point x="258" y="1272" type="line"/>
      <point x="258" y="1462" type="line"/>
      <point x="160" y="1462" type="line"/>
      <point x="160" y="1272" type="line"/>
      <point x="27" y="1272" type="line"/>
      <point x="27" y="1182" type="line"/>
      <point x="160" y="1182" type="line"/>
    </contour>
  </outline>
</glyph>
<glyph name="Tedescender-cy" format="2">
  <advance width="711"/>
  <unicode hex="04AC"/>
  <note>
uni04AC
</note>
  <outline>
    <contour>
      <point x="420" y="-369" type="line"/>
      <point x="514" y="-369" type="line"/>
      <point x="514" y="94" type="line"/>
      <point x="403" y="94" type="line"/>
      <point x="403" y="1368" type="line"/>
      <point x="694" y="1368" type="line"/>
      <point x="694" y="1462" type="line"/>
      <point x="14" y="1462" type="line"/>
      <point x="14" y="1368" type="line"/>
      <point x="305" y="1368" type="line"/>
      <point x="305" y="0" type="line"/>
      <point x="420" y="0" type="line"/>
    </contour>
  </outline>
</glyph>
<glyph name="shha-cy" format="2">
  <advance width="870"/>
  <unicode hex="04BB"/>
  <note>
uni04BB
</note>
  <anchor x="842" y="0" name="bottomright"/>
  <outline>
    <contour>
      <point x="145" y="0" type="line"/>
      <point x="240" y="0" type="line"/>
      <point x="240" y="401" type="line" smooth="yes"/>
      <point x="240" y="497"/>
      <point x="257" y="564"/>
      <point x="296" y="616" type="curve" smooth="yes"/>
      <point x="328" y="659"/>
      <point x="393" y="685"/>
      <point x="472" y="685" type="curve" smooth="yes"/>
      <point x="590" y="685"/>
      <point x="635" y="635"/>
      <point x="635" y="509" type="curve" smooth="yes"/>
      <point x="635" y="0" type="line"/>
      <point x="729" y="0" type="line"/>
      <point x="729" y="509" type="line" smooth="yes"/>
      <point x="729" y="684"/>
      <point x="649" y="772"/>
      <point x="488" y="772" type="curve" smooth="yes"/>
      <point x="376" y="772"/>
      <point x="298" y="734"/>
      <point x="248" y="654" type="curve"/>
      <point x="238" y="654" type="line"/>
      <point x="239" y="671"/>
      <point x="240" y="693"/>
      <point x="240" y="721" type="curve" smooth="yes"/>
      <point x="240" y="1085" type="line"/>
      <point x="145" y="1085" type="line"/>
    </contour>
  </outline>
</glyph>
<glyph name="chedescenderabkhasian-cy" format="2">
  <advance width="944"/>
  <unicode hex="04BF"/>
  <note>
uni04BF
</note>
  <outline>
    <contour>
      <point x="532" y="-369" type="line"/>
      <point x="627" y="-369" type="line"/>
      <point x="627" y="-2" type="line"/>
      <point x="532" y="2" type="line"/>
    </contour>
    <component base="cheabkhasian-cy"/>
  </outline>
</glyph>
<glyph name="Kahook-cy" format="2">
  <advance width="905"/>
  <unicode hex="04C3"/>
  <note>
uni04C3
</note>
  <outline>
    <contour>
      <point x="447" y="-512" type="curve" smooth="yes"/>
      <point x="545" y="-512"/>
      <point x="619" y="-473"/>
      <point x="677" y="-400" type="curve" smooth="yes"/>
      <point x="768" y="-284"/>
      <point x="811" y="-88"/>
      <point x="811" y="144" type="curve" smooth="yes"/>
      <point x="811" y="272"/>
      <point x="798" y="382"/>
      <point x="768" y="480" type="curve" smooth="yes"/>
      <point x="705" y="686"/>
      <point x="578" y="803"/>
      <point x="407" y="803" type="curve" smooth="yes"/>
      <point x="391" y="803"/>
      <point x="387" y="803"/>
      <point x="373" y="801" type="curve"/>
      <point x="778" y="1462" type="line"/>
      <point x="672" y="1462" type="line"/>
      <point x="304" y="856" type="line" smooth="yes"/>
      <point x="285" y="824"/>
      <point x="270" y="799"/>
      <point x="258" y="780" type="curve"/>
      <point x="258" y="1462" type="line"/>
      <point x="160" y="1462" type="line"/>
      <point x="160" y="0" type="line"/>
      <point x="258" y="0" type="line"/>
      <point x="258" y="688" type="line"/>
      <point x="306" y="705"/>
      <point x="355" y="713"/>
      <point x="395" y="713" type="curve" smooth="yes"/>
      <point x="592" y="713"/>
      <point x="709" y="518"/>
      <point x="709" y="145" type="curve" smooth="yes"/>
      <point x="709" y="-20"/>
      <point x="686" y="-167"/>
      <point x="637" y="-269" type="curve" smooth="yes"/>
      <point x="590" y="-367"/>
      <point x="521" y="-418"/>
      <point x="437" y="-418" type="curve" smooth="yes"/>
      <point x="385" y="-418"/>
      <point x="329" y="-399"/>
      <point x="270" y="-362" type="curve"/>
      <point x="270" y="-463" type="line"/>
      <point x="323" y="-497"/>
      <point x="387" y="-512"/>
    </contour>
  </outline>
</glyph>
<glyph name="entail-cy" format="2">
  <advance width="883"/>
  <unicode hex="04CA"/>
  <note>
uni04CA
</note>
  <outline>
    <contour>
      <point x="621" y="-369" type="line"/>
      <point x="727" y="-369" type="line"/>
      <point x="844" y="94" type="line"/>
      <point x="737" y="94" type="line"/>
      <point x="737" y="1085" type="line"/>
      <point x="643" y="1085" type="line"/>
      <point x="643" y="610" type="line"/>
      <point x="240" y="610" type="line"/>
      <point x="240" y="1085" type="line"/>
      <point x="145" y="1085" type="line"/>
      <point x="145" y="0" type="line"/>
      <point x="240" y="0" type="line"/>
      <point x="240" y="524" type="line"/>
      <point x="643" y="524" type="line"/>
      <point x="643" y="0" type="line"/>
      <point x="737" y="0" type="line"/>
    </contour>
  </outline>
</glyph>
<glyph name="emtail-cy" format="2">
  <advance width="1055"/>
  <unicode hex="04CE"/>
  <note>
uni04CE
</note>
  <outline>
    <contour>
      <point x="793" y="-369" type="line"/>
      <point x="899" y="-369" type="line"/>
      <point x="1016" y="94" type="line"/>
      <point x="909" y="94" type="line"/>
      <point x="909" y="1085" type="line"/>
      <point x="770" y="1085" type="line"/>
      <point x="591" y="387" type="line"/>
      <point x="568" y="294"/>
      <point x="532" y="154"/>
      <point x="528" y="115" type="curve"/>
      <point x="520" y="115" type="line"/>
      <point x="501" y="222"/>
      <point x="488" y="290"/>
      <point x="463" y="385" type="curve" smooth="yes"/>
      <point x="285" y="1085" type="line"/>
      <point x="145" y="1085" type="line"/>
      <point x="145" y="0" type="line"/>
      <point x="236" y="0" type="line"/>
      <point x="236" y="657" type="line" smooth="yes"/>
      <point x="236" y="710"/>
      <point x="231" y="788"/>
      <point x="225" y="924" type="curve"/>
      <point x="233" y="924" type="line"/>
      <point x="253" y="845"/>
      <point x="274" y="766"/>
      <point x="294" y="687" type="curve"/>
      <point x="469" y="0" type="line"/>
      <point x="580" y="0" type="line"/>
      <point x="763" y="713" type="line"/>
      <point x="781" y="783"/>
      <point x="799" y="854"/>
      <point x="817" y="924" type="curve"/>
      <point x="825" y="924" type="line"/>
      <point x="818" y="811"/>
      <point x="815" y="720"/>
      <point x="815" y="651" type="curve" smooth="yes"/>
      <point x="815" y="0" type="line"/>
      <point x="909" y="0" type="line"/>
    </contour>
  </outline>
</glyph>
<glyph name="Gedescender-cy" format="2">
  <advance width="686"/>
  <unicode hex="04F6"/>
  <note>
uni04F6
</note>
  <outline>
    <contour>
      <point x="274" y="-369" type="line"/>
      <point x="369" y="-369" type="line"/>
      <point x="369" y="94" type="line"/>
      <point x="258" y="94" type="line"/>
      <point x="258" y="1368" type="line"/>
      <point x="670" y="1368" type="line"/>
      <point x="670" y="1462" type="line"/>
      <point x="160" y="1462" type="line"/>
      <point x="160" y="0" type="line"/>
      <point x="274" y="0" type="line"/>
    </contour>
  </outline>
</glyph>
<glyph name="Hastroke-cy" format="2">
  <advance width="715"/>
  <unicode hex="04FE"/>
  <note>
uni04FE
</note>
  <outline>
    <contour>
      <point x="20" y="0" type="line"/>
      <point x="119" y="0" type="line"/>
      <point x="375" y="698" type="line"/>
      <point x="592" y="0" type="line"/>
      <point x="694" y="0" type="line"/>
      <point x="453" y="741" type="line"/>
      <point x="633" y="741" type="line"/>
      <point x="633" y="831" type="line"/>
      <point x="461" y="831" type="line"/>
      <point x="694" y="1462" type="line"/>
      <point x="594" y="1462" type="line"/>
      <point x="377" y="850" type="line"/>
      <point x="166" y="1462" type="line"/>
      <point x="63" y="1462" type="line"/>
      <point x="291" y="831" type="line"/>
      <point x="119" y="831" type="line"/>
      <point x="119" y="741" type="line"/>
      <point x="299" y="741" type="line"/>
    </contour>
  </outline>
</glyph>
<glyph name="quoteleft" format="2">
  <advance width="315"/>
  <unicode hex="2018"/>
  <note>
quoteleft
</note>
  <outline>
    <contour>
      <point x="57" y="993" type="line"/>
      <point x="172" y="993" type="line"/>
      <point x="189" y="1136"/>
      <point x="222" y="1292"/>
      <point x="272" y="1462" type="curve"/>
      <point x="209" y="1462" type="line"/>
      <point x="142" y="1315"/>
      <point x="87" y="1166"/>
      <point x="43" y="1016" type="curve"/>
    </contour>
  </outline>
</glyph>
<glyph name="quotesinglbase" format="2">
  <advance width="422"/>
  <unicode hex="201A"/>
  <note>
quotesinglbase
</note>
  <outline>
    <contour>
      <point x="78" y="-264" type="curve"/>
      <point x="141" y="-264" type="line"/>
      <point x="208" y="-117"/>
      <point x="263" y="32"/>
      <point x="307" y="182" type="curve"/>
      <point x="293" y="205" type="line"/>
      <point x="178" y="205" type="line"/>
      <point x="161" y="62"/>
      <point x="128" y="-94"/>
    </contour>
  </outline>
</glyph>
<glyph name="ellipsis" format="2">
  <advance width="1266"/>
  <unicode hex="2026"/>
  <note>
ellipsis
</note>
  <outline>
    <contour>
      <point x="211" y="-16" type="curve" smooth="yes"/>
      <point x="254" y="-16"/>
      <point x="289" y="14"/>
      <point x="289" y="90" type="curve" smooth="yes"/>
      <point x="289" y="169"/>
      <point x="254" y="197"/>
      <point x="211" y="197" type="curve" smooth="yes"/>
      <point x="159" y="197"/>
      <point x="133" y="161"/>
      <point x="133" y="90" type="curve" smooth="yes"/>
      <point x="133" y="19"/>
      <point x="159" y="-16"/>
    </contour>
    <contour>
      <point x="633" y="-16" type="curve" smooth="yes"/>
      <point x="676" y="-16"/>
      <point x="711" y="14"/>
      <point x="711" y="90" type="curve" smooth="yes"/>
      <point x="711" y="169"/>
      <point x="676" y="197"/>
      <point x="633" y="197" type="curve" smooth="yes"/>
      <point x="581" y="197"/>
      <point x="555" y="161"/>
      <point x="555" y="90" type="curve" smooth="yes"/>
      <point x="555" y="19"/>
      <point x="581" y="-16"/>
    </contour>
    <contour>
      <point x="1055" y="-16" type="curve" smooth="yes"/>
      <point x="1098" y="-16"/>
      <point x="1133" y="14"/>
      <point x="1133" y="90" type="curve" smooth="yes"/>
      <point x="1133" y="169"/>
      <point x="1098" y="197"/>
      <point x="1055" y="197" type="curve" smooth="yes"/>
      <point x="1003" y="197"/>
      <point x="977" y="161"/>
      <point x="977" y="90" type="curve" smooth="yes"/>
      <point x="977" y="19"/>
      <point x="1003" y="-16"/>
    </contour>
  </outline>
</glyph>
<glyph name="lira" format="2">
  <advance width="819"/>
  <unicode hex="20A4"/>
  <note>
afii08941
</note>
  <outline>
    <contour>
      <point x="92" y="0" type="line"/>
      <point x="737" y="0" type="line"/>
      <point x="737" y="94" type="line"/>
      <point x="215" y="94" type="line"/>
      <point x="253" y="121"/>
      <point x="281" y="157"/>
      <point x="302" y="202" type="curve" smooth="yes"/>
      <point x="325" y="254"/>
      <point x="336" y="319"/>
      <point x="336" y="395" type="curve" smooth="yes"/>
      <point x="336" y="477" type="line"/>
      <point x="586" y="477" type="line"/>
      <point x="586" y="563" type="line"/>
      <point x="336" y="563" type="line"/>
      <point x="336" y="756" type="line"/>
      <point x="586" y="756" type="line"/>
      <point x="586" y="842" type="line"/>
      <point x="336" y="842" type="line"/>
      <point x="336" y="1120" type="line" smooth="yes"/>
      <point x="336" y="1309"/>
      <point x="384" y="1393"/>
      <point x="504" y="1393" type="curve" smooth="yes"/>
      <point x="571" y="1393"/>
      <point x="632" y="1368"/>
      <point x="686" y="1319" type="curve"/>
      <point x="741" y="1395" type="line"/>
      <point x="674" y="1454"/>
      <point x="595" y="1483"/>
      <point x="506" y="1483" type="curve" smooth="yes"/>
      <point x="321" y="1483"/>
      <point x="238" y="1365"/>
      <point x="238" y="1120" type="curve" smooth="yes"/>
      <point x="238" y="842" type="line"/>
      <point x="80" y="842" type="line"/>
      <point x="80" y="756" type="line"/>
      <point x="238" y="756" type="line"/>
      <point x="238" y="563" type="line"/>
      <point x="80" y="563" type="line"/>
      <point x="80" y="477" type="line"/>
      <point x="238" y="477" type="line"/>
      <point x="238" y="393" type="line" smooth="yes"/>
      <point x="238" y="234"/>
      <point x="183" y="121"/>
      <point x="92" y="82" type="curve"/>
    </contour>
  </outline>
</glyph>
<glyph name="increment" format="2">
  <advance width="805"/>
  <unicode hex="2206"/>
  <note>
Delta
</note>
  <outline>
    <contour>
      <point x="23" y="0" type="line"/>
      <point x="782" y="0" type="line"/>
      <point x="782" y="84" type="line"/>
      <point x="451" y="1462" type="line"/>
      <point x="348" y="1462" type="line"/>
      <point x="23" y="96" type="line"/>
    </contour>
    <contour>
      <point x="131" y="94" type="line"/>
      <point x="284" y="784"/>
      <point x="365" y="1149"/>
      <point x="373" y="1188" type="curve" smooth="yes"/>
      <point x="382" y="1236"/>
      <point x="392" y="1289"/>
      <point x="404" y="1348" type="curve"/>
      <point x="394" y="1331" type="line"/>
      <point x="407" y="1264"/>
      <point x="435" y="1132"/>
      <point x="479" y="936" type="curve" smooth="yes"/>
      <point x="544" y="655"/>
      <point x="609" y="375"/>
      <point x="674" y="94" type="curve"/>
    </contour>
  </outline>
</glyph>
<glyph name="notequal" format="2">
  <advance width="819"/>
  <unicode hex="2260"/>
  <note>
notequal
</note>
  <outline>
    <contour>
      <point x="199" y="178" type="line"/>
      <point x="332" y="465" type="line"/>
      <point x="760" y="465" type="line"/>
      <point x="760" y="547" type="line"/>
      <point x="371" y="547" type="line"/>
      <point x="535" y="895" type="line"/>
      <point x="760" y="895" type="line"/>
      <point x="760" y="977" type="line"/>
      <point x="573" y="977" type="line"/>
      <point x="692" y="1227" type="line"/>
      <point x="623" y="1262" type="line"/>
      <point x="489" y="977" type="line"/>
      <point x="59" y="977" type="line"/>
      <point x="59" y="895" type="line"/>
      <point x="451" y="895" type="line"/>
      <point x="289" y="547" type="line"/>
      <point x="59" y="547" type="line"/>
      <point x="59" y="465" type="line"/>
      <point x="250" y="465" type="line"/>
      <point x="133" y="213" type="line"/>
    </contour>
  </outline>
</glyph>
<glyph name="brevecomb-cy" format="2">
  <note>
g566
</note>
  <anchor x="361" y="1085" name="_top"/>
  <outline>
    <contour>
      <point x="360" y="1241" type="curve" smooth="yes"/>
      <point x="523" y="1241"/>
      <point x="612" y="1335"/>
      <point x="622" y="1522" type="curve"/>
      <point x="530" y="1522" type="line"/>
      <point x="518" y="1379"/>
      <point x="472" y="1315"/>
      <point x="360" y="1315" type="curve" smooth="yes"/>
      <point x="253" y="1315"/>
      <point x="207" y="1371"/>
      <point x="192" y="1522" type="curve"/>
      <point x="100" y="1522" type="line"/>
      <point x="113" y="1325"/>
      <point x="197" y="1241"/>
    </contour>
  </outline>
</glyph>
<glyph name="g892" format="2">
  <note>
g892
</note>
  <anchor x="-616" y="1124" name="_top"/>
  <outline>
    <contour>
      <point x="-616" y="1245" type="curve" smooth="yes"/>
      <point x="-471" y="1245"/>
      <point x="-378" y="1330"/>
      <point x="-373" y="1479" type="curve"/>
      <point x="-444" y="1479" type="line"/>
      <point x="-460" y="1379"/>
      <point x="-516" y="1329"/>
      <point x="-612" y="1329" type="curve" smooth="yes"/>
      <point x="-700" y="1329"/>
      <point x="-768" y="1372"/>
      <point x="-780" y="1479" type="curve"/>
      <point x="-848" y="1479" type="line"/>
      <point x="-843" y="1335"/>
      <point x="-772" y="1245"/>
    </contour>
    <contour>
      <point x="-608" y="1491" type="curve"/>
      <point x="-561" y="1491" type="line"/>
      <point x="-561" y="1509" type="line"/>
      <point x="-630" y="1598"/>
      <point x="-673" y="1667"/>
      <point x="-688" y="1718" type="curve"/>
      <point x="-811" y="1718" type="line"/>
      <point x="-811" y="1702" type="line"/>
      <point x="-754" y="1621"/>
      <point x="-687" y="1551"/>
    </contour>
  </outline>
</glyph>
<glyph name="six.numr" format="2">
  <advance width="614"/>
  <note>
sixsuperior
</note>
  <outline>
    <contour>
      <point x="301" y="569" type="curve" smooth="yes"/>
      <point x="442" y="569"/>
      <point x="537" y="687"/>
      <point x="537" y="864" type="curve" smooth="yes"/>
      <point x="537" y="1037"/>
      <point x="454" y="1145"/>
      <point x="322" y="1145" type="curve" smooth="yes"/>
      <point x="253" y="1145"/>
      <point x="187" y="1097"/>
      <point x="152" y="1030" type="curve"/>
      <point x="143" y="1030" type="line"/>
      <point x="154" y="1275"/>
      <point x="229" y="1401"/>
      <point x="356" y="1401" type="curve" smooth="yes"/>
      <point x="414" y="1401"/>
      <point x="455" y="1394"/>
      <point x="479" y="1380" type="curve"/>
      <point x="479" y="1466" type="line"/>
      <point x="454" y="1477"/>
      <point x="418" y="1483"/>
      <point x="371" y="1483" type="curve" smooth="yes"/>
      <point x="160" y="1483"/>
      <point x="57" y="1326"/>
      <point x="57" y="942" type="curve" smooth="yes"/>
      <point x="57" y="710"/>
      <point x="152" y="569"/>
    </contour>
    <contour>
      <point x="307" y="651" type="curve" smooth="yes"/>
      <point x="212" y="651"/>
      <point x="147" y="751"/>
      <point x="147" y="887" type="curve" smooth="yes"/>
      <point x="147" y="978"/>
      <point x="218" y="1063"/>
      <point x="309" y="1063" type="curve" smooth="yes"/>
      <point x="397" y="1063"/>
      <point x="449" y="985"/>
      <point x="449" y="858" type="curve" smooth="yes"/>
      <point x="449" y="734"/>
      <point x="394" y="651"/>
    </contour>
  </outline>
</glyph>
<glyph name="three.numr" format="2">
  <advance width="614"/>
  <note>
threesuperior
</note>
  <outline>
    <contour>
      <point x="250" y="569" type="curve" smooth="yes"/>
      <point x="417" y="569"/>
      <point x="526" y="672"/>
      <point x="526" y="819" type="curve" smooth="yes"/>
      <point x="526" y="938"/>
      <point x="471" y="1013"/>
      <point x="360" y="1044" type="curve"/>
      <point x="360" y="1053" type="line"/>
      <point x="447" y="1085"/>
      <point x="498" y="1159"/>
      <point x="498" y="1255" type="curve" smooth="yes"/>
      <point x="498" y="1398"/>
      <point x="414" y="1485"/>
      <point x="266" y="1485" type="curve" smooth="yes"/>
      <point x="186" y="1485"/>
      <point x="113" y="1455"/>
      <point x="47" y="1395" type="curve"/>
      <point x="100" y="1327" type="line"/>
      <point x="149" y="1375"/>
      <point x="202" y="1399"/>
      <point x="258" y="1399" type="curve" smooth="yes"/>
      <point x="353" y="1399"/>
      <point x="408" y="1348"/>
      <point x="408" y="1260" type="curve" smooth="yes"/>
      <point x="408" y="1155"/>
      <point x="344" y="1085"/>
      <point x="231" y="1085" type="curve" smooth="yes"/>
      <point x="166" y="1085" type="line"/>
      <point x="166" y="1004" type="line"/>
      <point x="227" y="1004" type="line" smooth="yes"/>
      <point x="363" y="1004"/>
      <point x="432" y="939"/>
      <point x="432" y="819" type="curve" smooth="yes"/>
      <point x="432" y="720"/>
      <point x="377" y="655"/>
      <point x="252" y="655" type="curve" smooth="yes"/>
      <point x="183" y="655"/>
      <point x="116" y="672"/>
      <point x="53" y="707" type="curve"/>
      <point x="53" y="612" type="line"/>
      <point x="118" y="583"/>
      <point x="184" y="569"/>
    </contour>
  </outline>
</glyph>
